<?xml version="1.0" encoding="UTF-8"?>
<svg version="1.1" viewBox="0 0 1600 1064" width="1280" height="1280" xmlns="http://www.w3.org/2000/svg">
<path transform="translate(0)" d="m0 0h1600v1064h-1600v-1064z" fill="#D11121"/>
<path transform="translate(798,358)" d="m0 0c0.99 0.33 1.98 0.66 3 1 0.948 1.92 0.948 1.92 1.76 4.47 0.31 0.951 0.621 1.9 0.94 2.88 0.488 1.56 0.488 1.56 0.986 3.15 0.345 1.07 0.69 2.14 1.05 3.24 1.1 3.42 2.18 6.84 3.27 10.3 0.707 2.2 1.42 4.4 2.12 6.59 2.58 8.01 5.14 16 7.63 24.1 2.87 9.26 5.91 18.5 9 27.7 0.524 1.57 1.05 3.13 1.57 4.7 0.792 2.37 1.59 4.74 2.38 7.11 1.69 5.05 3.37 10.1 5.05 15.1 0.415 1.25 0.83 2.5 1.26 3.79 0.774 2.33 1.55 4.66 2.32 7 0.512 1.54 0.512 1.54 1.03 3.11 0.295 0.892 0.591 1.78 0.895 2.7 0.704 2.15 0.704 2.15 1.75 4.13 0.703 0.00331 1.41 0.00662 2.13 0.01 17.1 0.0812 34.2 0.173 51.3 0.277 8.27 0.0502 16.5 0.0966 24.8 0.134 7.21 0.0329 14.4 0.0727 21.6 0.121 3.82 0.0253 7.63 0.0471 11.5 0.0606 3.59 0.0128 7.18 0.0348 10.8 0.064 1.95 0.0134 3.9 0.017 5.85 0.0203 1.16 0.0112 2.31 0.0223 3.51 0.0338 1.01 0.00553 2.02 0.0111 3.05 0.0168 2.51 0.262 2.51 0.262 5.51 2.26h-2c-0.33 0.99-0.66 1.98-1 3h-2c-0.33 0.99-0.66 1.98-1 3-1.96 1.4-3.97 2.72-6 4-2.24 1.57-4.47 3.16-6.69 4.75-0.604 0.431-1.21 0.862-1.83 1.31-2.94 2.1-5.87 4.22-8.77 6.37-1.47 1.09-1.47 1.09-2.96 2.2-0.871 0.652-1.74 1.3-2.64 1.98-2.11 1.4-2.11 1.4-4.11 1.4v2c-1.58 1.23-1.58 1.23-3.81 2.62-5.56 3.58-10.9 7.46-16.2 11.4-1.83 1.33-3.67 2.67-5.5 4-2.72 1.97-5.43 3.95-8.14 5.93-4.02 2.93-8.04 5.85-12.1 8.73-0.635 0.451-1.27 0.903-1.92 1.37-1.25 0.886-2.5 1.77-3.75 2.65-2.35 1.67-4.55 3.28-6.59 5.32h-3c-0.33 0.99-0.66 1.98-1 3-3.18 2.34-6.41 4.34-10 6-0.186 4.94 0.311 8.81 1.86 13.5 0.393 1.2 0.785 2.4 1.19 3.64 0.416 1.24 0.831 2.47 1.26 3.75 0.404 1.23 0.808 2.46 1.22 3.72 1.14 3.47 2.3 6.94 3.46 10.4 1.96 5.85 3.89 11.7 5.79 17.6 0.531 1.64 1.06 3.28 1.59 4.92 0.275 0.848 0.549 1.7 0.832 2.57 4.35 13.4 8.74 26.9 13.2 40.3 2.77 8.28 5.53 16.6 8.19 24.9 0.248 0.767 0.496 1.53 0.752 2.32 0.932 2.95 1.62 5.38 1.62 8.49 226 0.33 453 0.66 686 1v354h-1600v-354h685v-2h2c-0.227-1.18-0.454-2.35-0.688-3.56-0.731-3.79 0.348-6.05 1.88-9.51 1.26-3 2.17-6.09 3.11-9.2 1.83-5.99 3.75-11.9 5.74-17.9 0.258-0.767 0.515-1.53 0.78-2.32 1.06-3.14 2.11-6.28 3.17-9.41 0.789-2.34 1.57-4.67 2.36-7.01 0.236-0.696 0.473-1.39 0.717-2.11 1.55-4.62 2.77-9.25 3.93-14 0.844-2.52 1.71-5.01 2.62-7.5 11.9-26 11.9-26 14.4-52.5-1.51-1.53-1.51-1.53-3.46-2.8-0.723-0.513-1.45-1.03-2.19-1.55-1.16-0.813-1.16-0.813-2.35-1.64-1.58-1.17-3.15-2.33-4.73-3.51-1.63-1.21-3.27-2.41-4.9-3.62-0.82-0.607-1.64-1.21-2.48-1.84-3.36-2.48-6.71-4.91-10.2-7.23-2.62-1.75-5.03-3.62-7.46-5.62-4.92-3.98-10-7.61-15.2-11.2-1.67-1.16-3.33-2.33-5-3.5-2.4-1.68-4.81-3.37-7.22-5.04-6.64-4.61-13.2-9.35-19.7-14.1-1.13-0.822-1.13-0.822-2.29-1.66-0.68-0.495-1.36-0.99-2.06-1.5-1.71-1.25-1.71-1.25-3.72-2.2v-2c-0.728-0.258-1.46-0.516-2.21-0.781-2.9-1.27-5.01-2.74-7.48-4.72-1.15-0.913-1.15-0.913-2.32-1.84-1.99-1.66-1.99-1.66-3.99-3.66v-3h140c0.33-1.98 0.66-3.96 1-6 0.357-1.34 0.746-2.67 1.17-3.99 0.368-1.15 0.368-1.15 0.743-2.32 0.276-0.845 0.551-1.69 0.835-2.56 0.299-0.929 0.599-1.86 0.907-2.82 0.701-2.17 1.4-4.34 2.11-6.51 1.13-3.49 2.26-6.99 3.39-10.5 4.67-14.4 9.34-28.9 14.2-43.3 0.403-1.2 0.403-1.2 0.813-2.42 1.26-3.76 2.53-7.52 3.81-11.3 2.71-8.02 5.16-16.1 7.35-24.3 1.49-5.55 3.34-10.8 5.7-16.1z" fill="#006B33"/>
<path transform="translate(801,355)" d="m0 0c2.35-0.374 2.35-0.374 5.37-0.373 1.72-0.0101 1.72-0.0101 3.48-0.0204 1.91 0.0118 1.91 0.0118 3.87 0.0239 1.36-0.00222 2.73-0.00575 4.09-0.0105 3.78-0.00926 7.56 3.59e-4 11.3 0.0128 4.1 0.0103 8.2 0.0032 12.3-0.00173 7.2-0.00624 14.4-0.00126 21.6 0.0109 10.7 0.0181 21.4 0.019 32.1 0.0164 18-0.00395 36 0.00611 54 0.0241 17.8 0.0177 35.7 0.0293 53.5 0.0326 1.66 3.09e-4 1.66 3.09e-4 3.36 6.25e-4 5.62 0.00101 11.2 0.00192 16.9 0.00278 39.9 0.00631 79.7 0.0265 120 0.0549 38.7 0.0275 77.5 0.0487 116 0.0615 2.43 8.12e-4 4.87 0.00162 7.3 0.00244 19.8 0.00657 39.6 0.0127 59.3 0.0187 91.5 0.0282 183 0.0884 275 0.144v355c-172 0.0404-172 0.0404-237 0.0482-17.2 0.00204-34.4 0.00413-51.5 0.00636-2.08 2.7e-4 -4.16 5.38e-4 -6.23 8.05e-4 -33.2 0.00427-66.3 0.0118-99.5 0.021-34.1 0.00942-68.1 0.0156-102 0.0176-4.81 2.88e-4 -9.61 6.14e-4 -14.4 9.62e-4 -1.42 1.01e-4 -1.42 1.01e-4 -2.87 2.04e-4 -15.3 0.00118-30.5 0.00583-45.8 0.0118-15.3 0.00587-30.6 0.00814-46 0.00667-9.11-7.63e-4 -18.2 0.00129-27.3 0.0073-6.08 0.00373-12.2 0.00388-18.2 0.00103-3.47-0.00152-6.94-0.00141-10.4 0.00305-3.73 0.00396-7.45 0.00188-11.2-0.00184-1.09 0.00263-2.18 0.00525-3.31 0.00796-0.985-0.00225-1.97-0.00449-2.98-0.00681-1.28 2.34e-4 -1.28 2.34e-4 -2.59 4.73e-4 -2.05-0.125-2.05-0.125-4.05-1.12-0.915-2.37-1.71-4.71-2.47-7.14-0.236-0.738-0.473-1.48-0.716-2.24-0.778-2.44-1.55-4.87-2.32-7.31-0.813-2.55-1.63-5.1-2.44-7.65-0.552-1.73-1.1-3.45-1.66-5.18-2.45-7.69-5.01-15.3-7.59-23-3.61-10.7-7.02-21.5-10.3-32.3-2.07-6.72-4.22-13.4-6.49-20.1-0.254-0.749-0.509-1.5-0.77-2.27-1.24-3.65-2.5-7.3-3.77-10.9-0.455-1.33-0.909-2.66-1.36-3.99-0.404-1.16-0.807-2.32-1.22-3.52-0.939-3.64-1.22-6.62-0.867-10.4 2.69-2.25 2.69-2.25 6-4 3.65-1.88 3.65-1.88 6-5 1.65-1.03 3.32-2.02 5-3 1.66-1.17 3.3-2.36 4.94-3.56 4.31-3.16 8.64-6.28 13-9.38 5.46-3.88 10.8-7.86 16.2-11.9 18.9-14.2 18.9-14.2 21.9-14.2v-2c2.01-1.59 4.02-3.05 6.12-4.5 1.28-0.897 2.57-1.79 3.85-2.69 0.664-0.462 1.33-0.923 2.01-1.4 1.97-1.38 3.93-2.78 5.89-4.19 0.619-0.446 1.24-0.892 1.88-1.35 1.18-0.852 2.36-1.7 3.54-2.56 2.44-1.75 4.87-3.41 7.47-4.93 2.76-1.7 4.34-3.78 6.24-6.38-1.72-1.72-3.98-1.14-6.32-1.16-1.15-0.00979-2.31-0.0196-3.5-0.0297-1.28-0.00576-2.55-0.0115-3.87-0.0174-1.35-0.00957-2.7-0.0196-4.05-0.03-3.68-0.0271-7.35-0.0481-11-0.068-3.84-0.0218-7.67-0.0492-11.5-0.0761-7.27-0.05-14.5-0.0949-21.8-0.138-8.28-0.0493-16.6-0.104-24.8-0.16-17-0.114-34.1-0.221-51.1-0.323-0.644-1.26-1.28-2.53-1.92-3.79-0.357-0.703-0.714-1.41-1.08-2.13-1.37-2.86-2.3-5.77-3.22-8.81-0.189-0.617-0.378-1.23-0.573-1.87-0.404-1.32-0.805-2.64-1.2-3.97-1.08-3.58-2.18-7.15-3.29-10.7-0.225-0.731-0.45-1.46-0.682-2.22-2.23-7.2-4.62-14.4-7.03-21.5-4.08-12.1-7.94-24.2-11.7-36.4-2.29-7.48-2.29-7.48-4.9-14.9-1.71-4.48-3.16-9.01-4.6-13.6-0.273-0.853-0.545-1.71-0.826-2.59-0.257-0.815-0.514-1.63-0.779-2.47-0.348-1.1-0.348-1.1-0.704-2.23-0.503-1.84-0.503-1.84-0.503-3.84-0.66-0.33-1.32-0.66-2-1 0.66-0.99 1.32-1.98 2-3z" fill="#FAD916"/>
<path transform="translate(0,355)" d="m0 0h798c1.19 3.58 0.755 4.12-0.75 7.44-2.02 4.76-3.32 9.47-4.44 14.5-0.779 2.94-1.8 5.72-2.89 8.56-1.86 5.06-3.45 10.2-5.1 15.3-0.956 2.98-1.92 5.96-2.88 8.94-0.513 1.59-1.03 3.18-1.54 4.77-3.02 9.36-6.05 18.7-9.09 28.1-0.412 1.27-0.412 1.27-0.833 2.57-3.68 11.3-7.4 22.7-11.2 34-0.29 0.863-0.581 1.73-0.88 2.61-0.247 0.73-0.494 1.46-0.749 2.21-0.629 1.98-1.14 4-1.64 6.02h-140c2.8 4.67 4.28 6.26 8.56 9.25 0.971 0.686 1.94 1.37 2.94 2.08 2.36 1.66 2.36 1.66 4.5 2.67v2l2.03 0.648c3.96 1.8 7.11 4.32 10.5 6.98 4.75 3.63 9.5 7.17 14.5 10.4 6.57 4.3 12.9 8.95 19.2 13.6 3.45 2.55 6.93 5.05 10.4 7.56 1.58 1.17 3.14 2.38 4.67 3.62 3.49 2.76 7.12 5.28 10.8 7.82 18.9 13.2 18.9 13.2 22.9 17.3-0.162 10-4.89 20.6-8 30-0.432 1.33-0.863 2.66-1.29 4-1.65 5.06-3.34 10.1-5.25 15.1-0.264 0.689-0.527 1.38-0.799 2.09-0.736 1.91-1.48 3.81-2.23 5.71-1.2 3.26-2.06 6.53-2.87 9.91-1.47 6.08-3.35 12-5.37 17.9-0.349 1.03-0.698 2.07-1.06 3.13-0.706 2.09-1.41 4.18-2.12 6.27-7.64 19.6-7.64 19.6-11 40h-2v2h-685v-355z" fill="#FAD916"/>
<path transform="translate(0)" d="m0 0h1600v355l-175 0.148c-34.2 0.0333-68.5 0.0666-103 0.103-20.1 0.021-40.1 0.042-60.2 0.0626-2.43 0.0025-4.86 5e-3 -7.28 0.00751-38.7 0.0399-77.5 0.0734-116 0.104-39.8 0.031-79.6 0.0685-119 0.114-5.61 0.00645-11.2 0.0128-16.8 0.0192-1.66 0.00187-1.66 0.00187-3.35 0.00378-17.8 0.0199-35.6 0.033-53.5 0.0434-17.9 0.0107-35.8 0.0285-53.7 0.0539-10.6 0.0148-21.3 0.0241-31.9 0.0254-7.1 0.00143-14.2 0.01-21.3 0.0246-4.05 0.00811-8.11 0.013-12.2 0.00912-3.68-0.00342-7.36 0.00219-11 0.0153-1.96 0.00458-3.92-7.44e-4 -5.89-0.00635-1.15 0.00593-2.3 0.0119-3.48 0.018-1.5 0.0014-1.5 0.0014-3.02 0.00284-2.54 0.0235-2.54 0.0235-4.35 2.25l-1-2c-263-0.33-527-0.66-798-1v-355zm44 53v4h-2l-1 2-2-2c-2.75 3.44-4.91 7.13-7 11-0.536 0.783-0.536 0.783-1.08 1.58-1.37 3.63-0.854 7.11-0.549 10.9 0.68 10.3 0.767 20.5 0.746 30.8-2.83e-4 1.94-1.22e-4 3.89 4.43e-4 5.83 2.84e-4 5.21-0.00554 10.4-0.0126 15.6-0.00631 5.47-0.00684 10.9-0.00803 16.4-0.00309 10.3-0.0113 20.7-0.0213 31-0.0112 11.8-0.0167 23.5-0.0217 35.3-0.0104 24.2-0.028 48.4-0.0503 72.6 1.32 0.33 2.64 0.66 4 1 0.248 1.11 0.495 2.23 0.75 3.38 0.825 3.68 0.825 3.68 3.31 4.81 0.959 0.402 0.959 0.402 1.94 0.812 0.75 2.12 0.75 2.12 1 4h2v-2h2v3c-1.65 0.33-3.3 0.66-5 1l1 3c5.44-0.99 5.44-0.99 11-2v-5h2l1-3c3 0 3 0 6 1v4h9v-5l7-2v5c12.4 0.115 24.6-0.104 37-1l2-4c1.75 5.7e-4 1.75 5.7e-4 3.53 0.00115 51.4 0.0167 103 0.0321 154 0.0412 0.778 1.38e-4 1.56 2.76e-4 2.36 4.18e-4 16.9 0.00299 33.8 0.00576 50.8 0.0083 8.3 0.00125 16.6 0.00254 24.9 0.00387 1.24 1.96e-4 1.24 1.96e-4 2.5 3.96e-4 26.7 0.00426 53.5 0.0118 80.2 0.021 27.5 0.00944 55 0.0156 82.5 0.0176 3.89 2.88e-4 7.77 6.14e-4 11.7 9.62e-4 0.765 6.74e-5 1.53 1.35e-4 2.32 2.04e-4 12.3 0.00118 24.6 0.00581 36.9 0.0118 12.4 0.0059 24.7 0.00813 37.1 0.00667 6.7-6.91e-4 13.4 3.29e-4 20.1 0.0057 6.14 0.00489 12.3 0.00509 18.4 0.00169 2.21-4.2e-4 4.42 8.26e-4 6.63 0.00398 11.7 0.0158 23.4-0.174 35.1-0.897 5.63-0.343 11.2-0.375 16.9-0.352 0.998-0.00387 2-0.00773 3.02-0.0117 5.01 0.00646 9.94 0.181 14.9 0.641 9.97 0.834 20 0.601 30 0.559 2.06-0.00503 4.12-0.00959 6.18-0.0137 5-0.0109 10-0.0281 15-0.0488v5c27.8 1.77 55.3 0.771 83-1v-4h3l1 4h8v-5c0.602 0.0125 1.2 0.0251 1.82 0.038 6.31 0.131 12.6 0.261 18.9 0.389 2.35 0.0481 4.7 0.0966 7.05 0.146 3.39 0.0706 6.79 0.14 10.2 0.208 1.04 0.0219 2.07 0.0437 3.14 0.0663 6.62 0.133 13.2 0.178 19.9 0.152l1 4h9l2-4h518l1 4c11.6 1.7 23.1 3.29 34.8 3.69 3.15 0.303 5.32 1.09 8.21 2.31 2.21 0.238 2.21 0.238 4.31 0.125l3.69-0.125 2 5h2.75 7.25v4h-11l1 4h4l1 3c1.94 0.0541 3.87 0.0928 5.81 0.125 1.62 0.0348 1.62 0.0348 3.27 0.0703 3.11 0.0349 3.11 0.0349 5.92-2.2 2.32-0.708 4.65-1.38 7-2l-1-10c-1.65-0.33-3.3-0.66-5-1 0.421-2.32 0.862-4.63 1.31-6.94l0.738-3.9c0.47-1.56 0.47-1.56 0.949-3.16 0.99-0.33 1.98-0.66 3-1-0.114-1.65-0.241-3.29-0.375-4.94-0.0696-0.917-0.139-1.83-0.211-2.78l-0.414-2.29c-0.66-0.33-1.32-0.66-2-1 0.812-3.44 0.812-3.44 2-7 0.99-0.33 1.98-0.66 3-1 3.67-15.5 3.65-31.3 1-47h-4v-2h4c-0.00444-0.911-0.00888-1.82-0.0135-2.76-0.0407-8.73-0.0708-17.5-0.0902-26.2-0.0103-4.49-0.0241-8.97-0.0473-13.5-0.0262-5.2-0.0409-10.4-0.0444-15.6-7.18e-4 -0.854-0.00144-1.71-0.00217-2.59 0.00676-12.6 0.465-25.1 1.67-37.7 0.697-7.97 1.21-17.4-2.47-24.7-0.99-0.33-1.98-0.66-3-1 1.49-0.495 1.49-0.495 3-1l-1-23-4-1-2-10 2-1c-1.16-2.1-1.16-2.1-3-4-2.63-0.334-2.63-0.334-5 0v2c-10.7 1.81-20.8 2.11-31.7 1.56-2.13-0.101-4.26-0.197-6.39-0.285-1.92-0.0802-3.85-0.173-5.77-0.267-3.04-0.0712-5.95 0.158-8.96 0.482-10.1 0.863-20.2 0.642-30.4 0.628-2.38 4.37e-4 -4.77 0.00131-7.15 0.00259-5.19 0.00177-10.4 4.35e-4 -15.6-0.00364-7.77-0.00608-15.5-0.00633-23.3-0.00545-13.2 0.00133-26.5-0.00206-39.7-0.00801-13.4-0.00601-26.8-0.00981-40.3-0.0109-1.27-1.08e-4 -1.27-1.08e-4 -2.57-2.18e-4 -4.32-3.55e-4 -8.65-6.72e-4 -13-9.74e-4 -30.3-0.00218-60.7-0.00862-91-0.0176-32-0.00947-63.9-0.0165-95.9-0.0201-0.963-1.07e-4 -1.93-2.14e-4 -2.92-3.25e-4 -10.8-0.00119-21.5-0.0023-32.3-0.00338-19.9-2e-3 -39.8-0.00433-59.7-0.00674-0.996-1.2e-4 -1.99-2.41e-4 -3.02-3.64e-4 -47.4-0.00574-94.8-0.0145-142-0.024-3.14-6.28e-4 -6.29-0.00126-9.43-0.00188-31.6-0.00629-63.1-0.0128-94.7-0.0193-32.6-0.00671-65.3-0.0134-97.9-0.0199-3.14-6.27e-4 -6.29-0.00125-9.43-0.00188-47.3-0.00945-94.7-0.018-142-0.0237-0.995-1.21e-4 -1.99-2.41e-4 -3.01-3.66e-4 -19.9-0.00241-39.7-0.00468-59.6-0.00668-10.7-0.00108-21.5-0.00222-32.2-0.00341-0.961-1.06e-4 -1.92-2.13e-4 -2.91-3.23e-4 -32-0.00358-63.9-0.0112-95.9-0.0206-30.2-0.00893-60.5-0.0148-90.7-0.0169-4.31-3.03e-4 -8.61-6.44e-4 -12.9-0.00101-0.844-7.04e-5 -1.69-1.41e-4 -2.56-2.13e-4 -13.4-0.00121-26.8-0.00581-40.2-0.0118-13.2-0.00583-26.3-0.00814-39.5-0.00666-7.72 7.63e-4 -15.4-0.00125-23.2-0.00729-5.72-0.00417-11.4-0.00318-17.2-1.02e-4 -2.31 4.24e-4 -4.62-8.58e-4 -6.93-0.00398-3.12-0.00399-6.24-0.00187-9.36 0.00184-0.901-0.00263-1.8-0.00525-2.73-0.00796-4.43 0.012-8.56 0.269-12.9 1.13-2.06 0.21-4.12 0.398-6.19 0.562l-3.11 0.254c-3.46 0.235-5.77 0.164-9.14-0.816-3.59-1.18-3.59-1.18-7.56-1v-3c0.99-0.33 1.98-0.66 3-1-0.99-0.33-1.98-0.66-3-1l1-4-2-1z" fill="#D00C22"/>
<path transform="translate(141 121)" d="m0 0c2.14-0.00327 4.28-0.00829 6.43-0.0149 5.86-0.013 11.7-0.00131 17.6 0.0146 6.39 0.0129 12.8 0.00245 19.2-0.00498 11.2-0.0105 22.4-0.00495 33.6 0.00996 12 0.0159 24 0.023 36 0.0196 1.14-3.23e-4 1.14-3.23e-4 2.3-6.52e-4 3.87-0.00114 7.75-0.00241 11.6-0.00374 28-0.00928 56 9.16e-4 84 0.0216 27.8 0.0205 55.6 0.0331 83.4 0.035 1.3 9.74e-5 1.3 9.74e-5 2.62 1.97e-4 7.9 5.93e-4 15.8 0.0011 23.7 0.0015 19.6 1e-3 39.3 0.00331 58.9 0.00654 0.895 1.46e-4 1.79 2.93e-4 2.71 4.43e-4 43.5 0.00724 87 0.0297 131 0.0531 60.3 0.0324 121 0.0537 181 0.0615 1.87 2.45e-4 3.74 4.91e-4 5.62 7.36e-4 9.34 0.00122 18.7 0.00243 28 0.00362 1.38 1.77e-4 1.38 1.77e-4 2.79 3.58e-4 4.65 5.95e-4 9.29 0.00119 13.9 0.00177 59.5 0.00748 119 0.0233 178 0.0412 3.48 0.00105 6.97 0.00209 10.4 0.00314 1.29 3.87e-4 1.29 3.87e-4 2.61 7.83e-4 12.1 0.00363 24.3 0.00688 36.4 0.00981 37.4 0.00904 74.8 0.0209 112 0.0422 3.12 0.00177 6.24 0.00352 9.36 0.00527 0.765 4.31e-4 1.53 8.62e-4 2.32 0.00131 10.5 0.00584 20.9 0.00961 31.4 0.0115 106 0.0197 106 0.0197 153 0.449 3.62 0.033 7.25 0.0599 10.9 0.081 4.11 0.0245 8.22 0.0632 12.3 0.114 1.47 0.016 2.94 0.0271 4.41 0.0329 8.82 0.0389 16.1 0.0987 23.4 5.56 12.3 16 8.34 40.9 8.01 59.8-0.0611 3.48-0.108 6.95-0.151 10.4-0.044 3.36-0.102 6.73-0.158 10.1-0.0147 1.23-0.0294 2.47-0.0445 3.74-0.341 17.2-0.341 17.2-5.28 23.3-0.492 0.626-0.985 1.25-1.49 1.9-6.21 6.56-13.7 5.96-22.2 6.29-1.11 0.0432-2.22 0.0864-3.36 0.131-16 0.521-32 0.355-48.1 0.27-1.14-0.00426-2.28-0.00853-3.46-0.0129-2.16-0.00827-4.32-0.0207-6.48-0.038-0.974-0.00326-1.95-0.00652-2.95-0.00987-1.27-0.00786-1.27-0.00786-2.57-0.0159-2.6 0.0582-2.6 0.0582-5.3 0.613-3.32 0.512-6.44 0.626-9.8 0.627-1.31 0.00261-2.62 0.00522-3.96 0.0079-1.44-0.00216-2.89-0.00442-4.33-0.00676-1.54 0.00115-3.08 0.00274-4.62 0.00473-4.23 0.00418-8.46 0.00211-12.7-9.86e-4 -4.56-0.00226-9.13 0.00123-13.7 0.00398-8.94 0.00445-17.9 0.00348-26.8 5.87e-4 -7.27-0.00226-14.5-0.00256-21.8-0.00148-1.04 1.53e-4 -2.07 3.06e-4 -3.14 4.64e-4 -2.1 3.2e-4 -4.21 6.44e-4 -6.31 9.73e-4 -19.7 0.00285-39.5-4.29e-4 -59.2-0.0058-16.9-0.00446-33.8-0.0037-50.7 9.19e-4 -19.6 0.00536-39.3 0.00745-58.9 0.00439-2.1-3.19e-4 -4.2-6.33e-4 -6.3-9.43e-4 -1.03-1.54e-4 -2.06-3.09e-4 -3.13-4.68e-4 -7.25-8.61e-4 -14.5 5.89e-4 -21.8 0.00295-8.85 0.00282-17.7 0.00202-26.6-0.00328-4.51-0.00261-9.02-0.00368-13.5-3.51e-4 -4.14 0.00301-8.29 0.00129-12.4-0.00398-1.49-0.0011-2.97-5.79e-4 -4.46 0.00188-9.14 0.0139-18.2-0.298-27.3-0.905-5.33-0.319-10.6-0.351-16-0.323-1.09 0.00146-2.19 0.00292-3.32 0.00443-2.34 0.00376-4.68 0.00982-7.02 0.0181-3.7 0.0129-7.41 0.0193-11.1 0.0241-7.85 0.0113-15.7 0.0306-23.5 0.051-9.14 0.0237-18.3 0.044-27.4 0.0559-3.64 0.00647-7.29 0.019-10.9 0.0317-2.23 0.00363-4.46 0.00698-6.69 0.01-1.51 0.00775-1.51 0.00775-3.06 0.0157-4.72 3.56e-4 -9.07-0.287-13.7-1.11-2.48-0.0585-4.97-0.0597-7.45-0.0217-0.738 0.00961-1.48 0.0192-2.24 0.0291-1.63 0.0217-3.25 0.0459-4.88 0.0721-2.72 0.0432-5.43 0.0791-8.15 0.113-4.07 0.0512-8.13 0.104-12.2 0.159-38.2 0.507-76.4 0.697-115 0.683-0.984-3.05e-4 -1.97-6.1e-4 -2.98-9.24e-4 -20-0.00649-39.9-0.0248-59.9-0.0577-7.64-0.0125-15.3-0.0219-22.9-0.0292-5.34-0.00543-10.7-0.0155-16-0.0293-3.28-0.00745-6.57-0.0107-9.85-0.0129-1.51-0.00184-3.01-0.00541-4.52-0.0109-2.06-0.0073-4.12-0.00825-6.19-0.00779-1.72-0.00333-1.72-0.00333-3.47-0.00673-2.78 0.0912-5.42 0.301-8.18 0.619-6.82 0.719-13.6 0.639-20.5 0.628-1.51 0.00115-3.01 0.00274-4.52 0.00473-4.12 0.00416-8.24 0.00212-12.4-9.86e-4 -4.45-0.00227-8.9 0.00123-13.3 0.00398-8.71 0.00444-17.4 0.00349-26.1 5.87e-4 -7.07-0.00226-14.1-0.00256-21.2-0.00148-1.01 1.53e-4 -2.01 3.06e-4 -3.05 4.64e-4 -2.05 3.2e-4 -4.09 6.44e-4 -6.14 9.73e-4 -19.2 0.00285-38.4-4.25e-4 -57.5-0.0058-16.5-0.00447-32.9-0.00369-49.4 9.19e-4 -19.1 0.00535-38.2 0.00746-57.4 0.00439-2.04-3.19e-4 -4.07-6.33e-4 -6.11-9.43e-4 -1.5-2.31e-4 -1.5-2.31e-4 -3.04-4.68e-4 -7.07-8.64e-4 -14.1 5.95e-4 -21.2 0.00295-8.61 0.0028-17.2 0.00205-25.8-0.00328-4.39-0.00263-8.79-0.00365-13.2-3.51e-4 -4.02 0.00297-8.04 0.00135-12.1-0.00398-1.46-0.00112-2.91-5.43e-4 -4.37 0.00188-1.98 0.00303-3.95-6.7e-4 -5.93-0.00472-1.1-1.62e-4 -2.2-3.25e-4 -3.33-4.92e-4 -2.77-0.118-5.24-0.544-7.94-1.13-2.39-0.0815-4.79-0.108-7.18-0.0977-0.705 0.00146-1.41 0.00292-2.14 0.00443-1.53 0.0038-3.05 0.0099-4.58 0.0181-2.43 0.0128-4.87 0.0193-7.3 0.0241-6.05 0.0133-12.1 0.0373-18.2 0.0614-5.1 0.02-10.2 0.0355-15.3 0.0456-2.37 0.00636-4.73 0.0189-7.1 0.0317-7.47 0.0258-14.9-0.0936-22.4-0.51-0.677-0.0364-1.35-0.0727-2.05-0.11-8.81-0.551-19-1.3-25.8-7.47v-2c-1.98-0.66-3.96-1.32-6-2v-2c-2.31 1.65-4.62 3.3-7 5-0.66-0.66-1.32-1.32-2-2-1.98 0.99-1.98 0.99-4 2-3.48-10.4-2.15-23.8-2.13-34.7-6.77e-4 -1.44-0.00165-2.89-0.0029-4.33-0.00146-3 6.15e-4 -5.99 0.00534-8.99 0.0057-3.79 0.0024-7.59-0.00357-11.4-0.00365-2.97-0.00245-5.94 1.28e-4 -8.91 6.56e-4 -1.4-1.1e-4 -2.79-0.00248-4.19-0.0347-26.2-0.0347-26.2 2.14-30.5h2v2h3v-2h2v2h2c1.62 2 1.62 2 3 4 3.63-1.87 3.63-1.87 6-5h2c0.33-0.99 0.66-1.98 1-3 2.06-0.688 2.06-0.688 4-1v-3c13.7-3.48 26.6-4.57 40.7-4.49z" fill="#D00C21"/>
<path transform="translate(4,397)" d="m0 0c0.99 0.66 1.98 1.32 3 2 0.341 1.97 0.341 1.97 0.293 4.35-0.00967 0.851-0.0193 1.7-0.0293 2.58-0.0251 0.889-0.0503 1.78-0.0762 2.7-0.0135 0.897-0.0271 1.79-0.041 2.72-0.0354 2.22-0.0848 4.44-0.146 6.66h3v3h3v-3h2v3h5c0.98 4.09 1.12 7.91 1.12 12.1 8.54e-4 0.705 0.00171 1.41 0.00259 2.13 0.00164 2.35-0.00385 4.71-0.00932 7.06-2.82e-4 1.69-1.24e-4 3.38 4.43e-4 5.07 2.87e-4 4.59-0.00559 9.17-0.0126 13.8-0.00625 4.8-0.00684 9.6-0.00803 14.4-0.00311 9.09-0.0113 18.2-0.0213 27.3-0.0112 10.3-0.0167 20.7-0.0217 31-0.01 20.4-0.0265 40.8-0.0475 61.2-0.00185 2.01-0.00279 4.03-0.00279 6.04v2h-10c-0.33 8.91-0.66 17.8-1 27h-2v23l4-2c2.36-0.195 2.36-0.195 4.75-0.125 0.799 0.018 1.6 0.0361 2.42 0.0547 0.603 0.0232 1.21 0.0464 1.83 0.0703-0.345 0.615-0.691 1.23-1.05 1.86-1.24 2.12-1.24 2.12-0.203 4.32 1.13 1.96 1.13 1.96 3.25 2.81-0.33-1.65-0.66-3.3-1-5 0.99 0.33 1.98 0.66 3 1 0.372 1.32 0.706 2.66 1 4 0.66 0.33 1.32 0.66 2 1v3h3l2-3v3h3l2-3v3h3v4h5v-2h3v-2c1.65-0.33 3.3-0.66 5-1h-5v-4h7v-5c3.3 0.33 6.6 0.66 10 1v-2h3v-2h2c0.33-0.99 0.66-1.98 1-3h2v-3c1.65-0.33 3.3-0.66 5-1v-2c1.07-0.049 2.14-0.098 3.25-0.148 1.4-0.075 2.79-0.151 4.19-0.227 1.06-0.0464 1.06-0.0464 2.14-0.0938 1.81-0.104 3.62-0.31 5.42-0.531 0.33-0.66 0.66-1.32 1-2 10.5-1.89 21.7-1.14 32.3-1.13 1.94-0.00115 3.87-0.00274 5.81-0.00473 5.29-0.00416 10.6-0.00212 15.9 9.86e-4 5.72 0.00227 11.4-0.00123 17.2-0.00398 11.2-0.00444 22.4-0.00349 33.6-5.87e-4 9.1 0.00226 18.2 0.00256 27.3 0.00148 1.3-1.53e-4 2.59-3.06e-4 3.93-4.64e-4 2.63-3.2e-4 5.27-6.44e-4 7.9-9.73e-4 24-0.00277 48 1e-4 72 0.00534 21.9 0.00474 43.7 0.00432 65.6-4.61e-4 24.6-0.00537 49.2-0.00745 73.8-0.00439 2.63 3.19e-4 5.25 6.33e-4 7.88 9.43e-4 1.94 2.31e-4 1.94 2.31e-4 3.92 4.68e-4 9.08 8.61e-4 18.2-5.89e-4 27.2-0.00295 11.1-0.00281 22.2-0.00203 33.2 0.00328 5.65 0.00262 11.3 0.00368 16.9 3.51e-4 5.18-0.00301 10.4-0.0013 15.5 0.00398 1.86 0.00111 3.72 5.76e-4 5.59-0.00188 5.82-0.00706 11.6 0.0319 17.4 0.131 0.884 0.0131 1.77 0.0262 2.68 0.0397 2.69 0.05 5.39 0.13 8.08 0.218 0.809 0.0136 1.62 0.0272 2.45 0.0412 5.07 0.208 8.64 1.26 13 3.81 2.71 1.38 5.12 1.31 8.12 1.2 1.66-0.0464 1.66-0.0464 3.36-0.0938 3.78-0.253 7.51-0.678 11.2-1.29 2.02 0.0742 2.02 0.0742 3.82 1.36 1.21 1.72 1.21 1.72 0.895 4.91-0.227 0.928-0.454 1.86-0.688 2.81 0.928 0.34 0.928 0.34 1.88 0.688 2.74 1.69 3.18 3.3 4.12 6.31h10c-0.33 1.32-0.66 2.64-1 4 1.48-0.14 2.96-0.288 4.44-0.438 0.824-0.0812 1.65-0.162 2.5-0.246 2.05-0.106 2.05-0.106 3.07-1.32h-4v-2c1.05-0.144 2.1-0.289 3.19-0.438 2.95-0.435 5.89-0.977 8.81-1.56v12c1.65-1.32 3.3-2.64 5-4v4c1.32 0.33 2.64 0.66 4 1-1.98 0.66-3.96 1.32-6 2v-2h-3v2l10 3c-0.66 1.32-1.32 2.64-2 4 0.66 0.66 1.32 1.32 2 2-0.66 1.32-1.32 2.64-2 4 0.66 0.33 1.32 0.66 2 1-0.33 0.66-0.66 1.32-1 2-0.99-0.33-1.98-0.66-3-1-0.33-1.98-0.66-3.96-1-6-0.66 1.32-1.32 2.64-2 4 0.66 0.33 1.32 0.66 2 1-0.195 0.572-0.389 1.14-0.59 1.73-0.491 2.71-0.0227 4 1.03 6.52 0.431 1.06 0.431 1.06 0.871 2.14l0.691 1.61v-3c2.31-0.33 4.62-0.66 7-1-0.66 0.66-1.32 1.32-2 2h-2c0.33 1.32 0.66 2.64 1 4h-2c-0.33 1.32-0.66 2.64-1 4-0.33-0.66-0.66-1.32-1-2 0.33-0.66 0.66-1.32 1-2h-2v6c1.32-0.33 2.64-0.66 4-1l0.312-1.75c0.792-2.59 2.06-4.1 3.69-6.25 0.309-0.866 0.619-1.73 0.938-2.62 1.06-2.38 1.06-2.38 3.06-3.75 2-0.625 2-0.625 4 0.375v3c0.99 0.33 1.98 0.66 3 1-0.33 0.825-0.66 1.65-1 2.5-1.17 4.09-1.15 7.27-1 11.5h-2v2h-685v-10h1c1.04-14.8 1.16-29.5 1.19-44.4 0.00796-2.62 0.0163-5.23 0.0251-7.85 0.0182-5.6 0.0331-11.2 0.0458-16.8 0.0184-8.11 0.0431-16.2 0.0694-24.3 0.0426-13.2 0.0818-26.4 0.118-39.6 0.00324-1.18 0.00324-1.18 0.00655-2.38 0.0175-6.38 0.0349-12.8 0.0522-19.1 0.0152-5.58 0.0304-11.2 0.0457-16.7 0.00324-1.18 0.00324-1.18 0.00654-2.38 0.0362-13.1 0.0762-26.3 0.119-39.4 0.026-8.08 0.0487-16.2 0.067-24.3 0.0143-6.2 0.0334-12.4 0.0543-18.6 0.0077-2.53 0.0138-5.06 0.0181-7.59 0.0233-13.2 0.184-26.3 1.18-39.5z" fill="#F9D713"/>
<path transform="translate(968 714)" d="m0 0c3.95 1.07 7.68 1.47 11.7 1.64 1.16 0.0564 1.16 0.0564 2.35 0.114 10.5 0.457 20.9 0.403 31.4 0.389 2.36 4.37e-4 4.72 0.00131 7.08 0.00259 5.76 0.00199 11.5-6.21e-4 17.3-0.00524 6.91-0.00527 13.8-0.00465 20.7-0.00386 12.8 0.00131 25.5-0.00201 38.3-0.00802 12.6-0.00593 25.2-0.00977 37.9-0.0109 0.786-6.87e-5 1.57-1.37e-4 2.38-2.08e-4 3.99-3.38e-4 7.99-6.4e-4 12-9.27e-4 28.2-0.0021 56.5-0.00883 84.7-0.0183 27.4-0.00919 54.9-0.0163 82.3-0.0205 1.27-1.97e-4 1.27-1.97e-4 2.56-3.99e-4 8.5-0.00132 17-0.00259 25.5-0.00384 17.3-0.00254 34.6-0.00536 51.9-0.00835 0.796-1.37e-4 1.59-2.75e-4 2.41-4.16e-4 53.1-0.00919 106-0.0251 159-0.0419 0.33 2.64 0.66 5.28 1 8 2.12 0.0269 4.25 0.0464 6.38 0.0625 1.78 0.0174 1.78 0.0174 3.59 0.0352 2.96 0.117 2.96 0.117 5.04-1.1 0.33 0.66 0.66 1.32 1 2 0.976-2.93 1.08-4.96 1-8 6.13-1.41 11.7-2.22 18-2h3c0.99 0.33 1.98 0.66 3 1v322h-3c-0.853-16.9-1.14-33.7-1.11-50.6 2.83e-4 -2.57 1.22e-4 -5.13-4.43e-4 -7.7-2.26e-4 -5.47 0.00255-10.9 0.00824-16.4 0.00821-7.9 0.0107-15.8 0.012-23.7 0.00218-12.8 0.00879-25.7 0.0183-38.5 0.00921-12.4 0.0163-24.9 0.0205-37.3 2.63e-4 -0.77 5.25e-4 -1.54 7.96e-4 -2.33 0.00131-3.87 0.00257-7.73 0.00381-11.6 0.0103-31.9 0.028-63.9 0.0503-95.8h-2c-0.66 0.66-1.32 1.32-2 2v-2c-0.99-0.33-1.98-0.66-3-1-0.66-3.3-1.32-6.6-2-10h-6v4h-2c0.0412 0.763 0.0825 1.53 0.125 2.31-0.125 2.69-0.125 2.69-2.12 5.69-2.61 0.341-2.61 0.341-5.88 0.293-1.17-0.00967-2.33-0.0193-3.54-0.0293-1.22-0.0251-2.45-0.0503-3.71-0.0762-1.23-0.0135-2.46-0.0271-3.73-0.041-3.05-0.0354-6.1-0.0849-9.14-0.146v3c-2.71 1.35-5.01 1.07-8 1-0.33 2.64-0.66 5.28-1 8h-2c-0.33 0.99-0.66 1.98-1 3v-3h-4c-0.33 0.99-0.66 1.98-1 3v-3h-11v-3h-2v3c-55.7 0.79-111 1.15-167 1.14-7.24-0.00234-14.5-0.00255-21.7-0.00148-1.58 2.3e-4 -1.58 2.3e-4 -3.2 4.64e-4 -2.15 3.2e-4 -4.3 6.44e-4 -6.45 9.73e-4 -19.9 0.00281-39.8-3.59e-4 -59.6-0.0058-16.8-0.00446-33.6-0.00369-50.4 9.19e-4 -19.8 0.00544-39.6 0.00741-59.5 0.00439-2.14-3.18e-4 -4.29-6.33e-4 -6.43-9.43e-4 -1.05-1.54e-4 -2.11-3.09e-4 -3.19-4.68e-4 -7.16-8.37e-4 -14.3 5.53e-4 -21.5 0.00295-59.6 0.0183-119-0.422-179-1.14v-3h-31c-0.33 0.99-0.66 1.98-1 3v-3h-4c-0.33 0.99-0.66 1.98-1 3v-3h-9v3c-100 0.33-201 0.66-304 1v2h-2v-2h-3v2h-2c-0.33-0.66-0.66-1.32-1-2-0.705 3.8e-4 -1.41 7.59e-4 -2.14 0.00115-42.6 0.0228-85.1 0.0397-128 0.0499-5.21 0.00125-10.4 0.00254-15.6 0.00387-1.04 2.62e-4 -2.07 5.25e-4 -3.14 7.95e-4 -14.4 0.00373-28.7 0.00985-43.1 0.018-24.9 0.0141-49.8 0.0232-74.6 0.0239-0.979 3.86e-5 -1.96 7.71e-5 -2.97 1.17e-4 -78.2 0.00206-156-0.402-235-1.1v3h-3v-3h-2v3h-3c-0.99-3.63-1.98-7.26-3-11h-3c-0.33-0.66-0.66-1.32-1-2h-3v2h-2v8h-2c-0.495-3.96-0.495-3.96-1-8h-2c0.253-3.42 1.28-4.28 3.81-6.75 3.19-2.25 3.19-2.25 7.19-2.25v4h3c0.506 1.27 1 2.54 1.5 3.81 0.278 0.708 0.557 1.42 0.844 2.14 0.656 2.04 0.656 2.04 0.656 5.04 0.649-0.487 1.3-0.975 1.97-1.48 3.89-1.95 7.31-1.93 11.6-1.89 0.862-0.00346 1.72-0.00692 2.61-0.0105 2.9-0.00797 5.8 0.00554 8.7 0.0189 2.1-0.00131 4.19-0.00393 6.29-0.00777 5.77-0.00672 11.5 0.00531 17.3 0.0203 6.22 0.0129 12.4 0.00857 18.7 0.00629 10.8-0.00157 21.6 0.00775 32.3 0.0247 11.3 0.0177 22.6 0.0293 33.9 0.0326 0.703 2.06e-4 1.41 4.12e-4 2.13 6.25e-4 3.57 0.00101 7.14 0.00192 10.7 0.00278 25.3 0.0063 50.6 0.0265 75.8 0.0549 24.6 0.0275 49.1 0.0488 73.7 0.0615 0.757 3.95e-4 1.51 7.89e-4 2.29 0.0012 7.6 0.00396 15.2 0.00778 22.8 0.0115 15.5 0.00761 31 0.0161 46.4 0.0251 0.712 4.12e-4 1.42 8.24e-4 2.16 0.00125 47.5 0.0276 95.1 0.0752 143 0.126 0.33 0.99 0.66 1.98 1 3 1.07-0.487 2.13-0.974 3.23-1.48 5.62-2.09 11.1-1.94 17-1.91 1.22-0.00524 2.44-0.0105 3.7-0.0159 3.38-0.0115 6.75-0.00974 10.1-0.00229 3.65 0.00475 7.29-0.00783 10.9-0.0184 6.31-0.016 12.6-0.0213 18.9-0.0195 9.13 0.00239 18.3-0.0136 27.4-0.0345 14.8-0.0335 29.6-0.0552 44.5-0.068 0.886-7.69e-4 1.77-0.00154 2.69-0.00233 3.59-0.0031 7.18-0.00619 10.8-0.00924 9.9-0.00854 19.8-0.0194 29.7-0.0314 0.887-0.00107 1.77-0.00214 2.69-0.00324 14.8-0.0181 29.5-0.044 44.3-0.0749 9.11-0.0186 18.2-0.0295 27.3-0.0305 6.24-0.0011 12.5-0.00902 18.7-0.0224 3.6-0.00744 7.2-0.0115 10.8-0.00688 3.9 0.00494 7.79-0.00532 11.7-0.0171 1.15 0.00398 2.3 0.00796 3.48 0.0121 1.56-0.00842 1.56-0.00842 3.14-0.017 0.9-6.52e-4 1.8-0.0013 2.73-0.00198 2.36-0.051 2.36-0.051 4.15-2.25 2.82-0.195 2.82-0.195 6.12-0.125 1.1 0.018 2.19 0.0361 3.32 0.0547 1.26 0.0348 1.26 0.0348 2.55 0.0703 0.33 0.66 0.66 1.32 1 2l2-2c2.58-0.175 5.05-0.232 7.63-0.195 1.13 0.00424 1.13 0.00424 2.28 0.00858 2.4 0.0112 4.81 0.0363 7.21 0.0617 1.63 0.01 3.26 0.0192 4.89 0.0273 4 0.0221 7.99 0.0566 12 0.0977v3c1.22-0.00222 2.45-0.00444 3.71-0.00673 11.5-0.0202 23-0.0352 34.5-0.0451 5.92-0.00523 11.8-0.0123 17.7-0.0236 5.71-0.0108 11.4-0.0168 17.1-0.0194 2.18-0.00185 4.36-0.00547 6.54-0.0109 3.05-0.00722 6.09-0.00826 9.14-0.0078 0.909-0.0036 1.82-0.00719 2.76-0.0109 6.24 0.0104 6.24 0.0104 8.47 1.12 1.3-0.247 1.3-0.247 2.62-0.5 2.93-0.434 4.77-0.416 7.62 0 3.56 0.831 3.56 0.831 5.75-0.5 2.4-0.0955 4.77-0.13 7.16-0.12 0.75-8.54e-4 1.5-0.00171 2.27-0.00259 2.54-0.00166 5.08 0.00388 7.62 0.00932 1.83 2.8e-4 3.66 1.18e-4 5.49-4.51e-4 5.05-2.97e-4 10.1 0.00566 15.1 0.0126 5.43 0.00635 10.9 0.00694 16.3 0.00818 9.43 0.00289 18.9 0.00934 28.3 0.0181 13.6 0.0125 27.3 0.0186 40.9 0.0229 22.1 0.00707 44.3 0.0179 66.4 0.0317 0.995 6.2e-4 0.995 6.2e-4 2.01 0.00125 10.8 0.00671 21.5 0.0136 32.3 0.0206 10.1 0.00649 20.1 0.0129 30.2 0.0192 0.992 6.22e-4 0.992 6.22e-4 2 0.00126 22.7 0.0142 45.4 0.0245 68.1 0.0317 13.6 0.00448 27.2 0.0125 40.8 0.0251 9.33 0.00843 18.7 0.0133 28 0.0154 5.38 0.00134 10.8 0.00434 16.1 0.0118 4.93 0.00677 9.86 0.00888 14.8 0.00736 1.78 2.71e-4 3.56 0.00223 5.34 0.00609 13.9 0.296 13.9 0.296 27.7-1.12 0.66-0.66 1.32-1.32 2-2 2.62-0.125 2.62-0.125 5 0v3h11c0.33 0.66 0.66 1.32 1 2 1.99-2.99 2.89-5.61 4-9 1-1 1-1 4.06-1.06 0.969 0.0206 1.94 0.0412 2.94 0.0625 0.246-0.645 0.492-1.29 0.746-1.95 1.25-2.05 1.25-2.05 3.1-2.66 1.1-0.0696 1.1-0.0696 2.21-0.141 0.803-0.0541 1.61-0.108 2.43-0.164 1.24-0.0425 1.24-0.0425 2.5-0.0859 1.16-0.0425 1.16-0.0425 2.35-0.0859 4.66-0.0799 9.06 0.305 13.7 1.09 0.402-1.58 0.402-1.58 0.812-3.19 1.92-6.15 1.92-6.15 4.19-8.81 3.69-0.812 3.69-0.812 7-1v-11c-3.2 0.675-3.2 0.675-4.25 3.47-0.794 2.02-1.59 4.04-2.38 6.06-1.38 2.47-1.38 2.47-3.54 3.31-0.607 0.0516-1.21 0.103-1.84 0.156v3c-1.44-0.0875-2.88-0.196-4.31-0.312-0.801-0.058-1.6-0.116-2.43-0.176-2.26-0.512-2.26-0.512-3.75-2.06-1.45-1.69-1.45-1.69-3.86-1.63-1.29 0.151-1.29 0.151-2.6 0.305-0.855 0.0851-1.71 0.17-2.59 0.258-2.79 0.698-4.2 1.9-6.47 3.62-4.69 1.35-9.46 1.14-14.3 1.13-0.944 0.00145-1.89 0.00291-2.86 0.0044-3.18 0.00367-6.37 1.71e-4 -9.55-0.00326-2.3 0.00115-4.6 0.00274-6.89 0.00473-6.33 0.00419-12.7 0.0021-19-9.86e-4 -6.12-0.00251-12.2 6.32e-4 -18.4 0.00315-13.3 0.00527-26.6 0.00481-39.9 0.00192-11.7-0.00252-23.3-0.00317-35-0.00198-0.773 7.64e-5 -1.55 1.53e-4 -2.34 2.31e-4 -3.14 3.11e-4 -6.27 6.3e-4 -9.41 9.6e-4 -29.4 0.00306-58.9 2.83e-4 -88.3-0.0051-26.1-0.00474-52.3-0.00433-78.4 4.61e-4 -29.4 0.00536-58.7 0.00747-88.1 0.00439-3.14-3.21e-4 -6.27-6.34e-4 -9.41-9.43e-4 -0.772-7.91e-5 -1.54-1.58e-4 -2.34-2.4e-4 -11.6-0.00113-23.3 1.87e-4 -34.9 0.00272-13.2 0.00287-26.5 0.00212-39.7-0.00328-6.75-0.00266-13.5-0.00368-20.3-3.51e-4 -6.19 0.00301-12.4 0.0013-18.6-0.00398-2.23-0.00111-4.45-5.74e-4 -6.68 0.00188-14.6 0.0148-29.2-0.374-43.7-1.13v-2c-1.28 0.0174-1.28 0.0174-2.59 0.0352-13.2 0.0949-26.3-0.47-39.4-1.04-0.33-1.32-0.66-2.64-1-4-5.27-0.497-8.22-0.0546-12.9 2.5-7.65 3.84-15.8 2.91-24.1 2.5v2c-2.72 1.36-4.88 1.14-7.93 1.15-1.26 0.00716-2.53 0.0143-3.83 0.0217-1.41 0.00284-2.82 0.00555-4.23 0.00815-1.48 0.00626-2.96 0.0129-4.44 0.0199-4.87 0.0211-9.74 0.0314-14.6 0.0414-1.68 0.00405-3.36 0.00817-5.04 0.0124-7.91 0.0191-15.8 0.0333-23.7 0.0416-9.1 0.00973-18.2 0.0359-27.3 0.0765-7.05 0.0303-14.1 0.045-21.1 0.0483-4.2 0.00233-8.4 0.0111-12.6 0.0365-41.1 0.236-41.1 0.236-51.2-6.45v-3h-2c-0.66-1.98-1.32-3.96-2-6h-8v-2c-2.35 0.599-4.69 1.27-7 2-0.33 0.66-0.66 1.32-1 2h-2c-0.33 0.99-0.66 1.98-1 3-2.33 1.02-4.53 1.85-6.94 2.62-4.62 1.48-4.62 1.48-9.06 3.38-2.88 0.233-5.74 0.42-8.62 0.562-0.802 0.0432-1.6 0.0864-2.43 0.131-1.98 0.106-3.96 0.207-5.95 0.307v2c-5.27 1.08-10.3 1.14-15.7 1.12-0.974 0.00115-1.95 0.00231-2.95 0.0035-3.28 0.00266-6.56-0.00185-9.84-0.00629-2.37 4.36e-4 -4.74 0.00131-7.11 0.00259-5.16 0.00177-10.3 4.32e-4 -15.5-0.00364-7.67-0.00603-15.3-0.00634-23-0.00546-12.9 0.00131-25.8-0.00203-38.7-0.00802-12.8-0.00592-25.5-0.00977-38.3-0.0109-0.794-6.87e-5 -1.59-1.37e-4 -2.41-2.08e-4 -4.03-3.38e-4 -8.06-6.4e-4 -12.1-9.27e-4 -28.6-0.0021-57.1-0.00884-85.7-0.0183-27.8-0.00918-55.5-0.0163-83.3-0.0205-0.855-1.32e-4 -1.71-2.63e-4 -2.59-3.99e-4 -8.59-0.00132-17.2-0.00259-25.8-0.00384-17.5-0.00254-35-0.00536-52.5-0.00835-1.21-2.06e-4 -1.21-2.06e-4 -2.44-4.16e-4 -53.7-0.0092-107-0.0251-161-0.0419-0.495-1.49-0.495-1.49-1-3h-7c-0.495 1.49-0.495 1.49-1 3-2.97-0.33-5.94-0.66-9-1v-2c-3.01-0.934-3.87-1.04-7 0-1.66 0.0931-3.33 0.13-5 0.125-1.3 0.00387-1.3 0.00387-2.62 0.00781-2.38-0.133-2.38-0.133-5.38-1.13v3c0.99-0.33 1.98-0.66 3-1 0.99 0.99 1.98 1.98 3 3-0.33 0.99-0.66 1.98-1 3-0.681-0.474-1.36-0.949-2.06-1.44-2.91-1.76-2.91-1.76-6.44-2.06-3.72-0.532-5.68-1.01-8.5-3.5-1.85-6.6-1.33-14 2-20h-3v-3c10.6-1.69 20.9-2.19 31.6-2.19 1.81-9.67e-4 1.81-9.67e-4 3.66-0.00195 8.89 0.0546 8.89 0.0546 12.8 0.691 4.73 0.598 9.33 0.632 14.1 0.616 1.52 8.32e-4 1.52 8.32e-4 3.07 0.00168 3.4 6.43e-4 6.8-0.00588 10.2-0.0123 2.46-9.96e-4 4.92-0.00155 7.37-0.00169 5.35-0.0013 10.7-0.00571 16-0.0128 7.95-0.0105 15.9-0.0153 23.9-0.0188 13.4-0.00598 26.8-0.0163 40.1-0.0289 19.1-0.0178 38.2-0.0272 57.3-0.0349 7.67-0.00311 15.3-0.00649 23-0.00988 0.852-3.75e-4 1.7-7.5e-4 2.58-0.00114 20.3-0.00897 40.5-0.0206 60.8-0.0331 0.887-5.44e-4 1.77-0.00109 2.69-0.00165 20.7-0.0127 41.4-0.0267 62.1-0.043 0.891-6.97e-4 1.78-0.00139 2.7-0.00211 4.49-0.00352 8.99-0.00704 13.5-0.0106 0.888-6.97e-4 1.78-0.00139 2.69-0.00211 1.79-0.00141 3.59-0.00282 5.38-0.00422 29.6-0.0232 59.2-0.0397 88.8-0.0487 4.18-0.00128 8.35-0.00265 12.5-0.00408 0.822-2.81e-4 1.64-5.63e-4 2.49-8.53e-4 13.2-0.00476 26.5-0.0169 39.7-0.032 13.3-0.015 26.6-0.0231 39.9-0.0238 7.91-6.56e-4 15.8-0.00698 23.7-0.0212 5.89-0.01 11.8-0.00972 17.7-0.00528 2.39 1.52e-4 4.79-0.00314 7.18-0.0101 3.24-0.0089 6.47-0.00567 9.71 7.85e-4 0.945-0.00554 1.89-0.0111 2.86-0.0168 0.858 0.00424 1.72 0.00848 2.6 0.0128 0.74-5.36e-4 1.48-0.00107 2.24-0.00162 1.94 0.249 1.94 0.249 4.94 2.25 3.9 0 7.5-0.867 11.3-1.66 2.69-0.34 2.69-0.34 4.53 0.131 2.54 0.622 4.82 0.659 7.43 0.662 1.04 0.00193 2.08 0.00387 3.15 0.00586 1.12-0.00451 2.24-0.00902 3.39-0.0137 1.76-0.0029 1.76-0.0029 3.56-0.00586 7.04-0.0342 14-0.239 21.1-0.619 36.8-1.87 73.8-0.276 111 0.5 0.33 1.32 0.66 2.64 1 4-34.7 0.495-34.7 0.495-70 1 7.15 1.7 7.15 1.7 14.1 2.3 0.891 0.0166 1.78 0.0333 2.7 0.0504 0.932 0.00841 1.86 0.0168 2.82 0.0255 1.48 0.0255 1.48 0.0255 2.99 0.0515 3.13 0.0527 6.26 0.0932 9.38 0.132 3.13 0.0442 6.26 0.0911 9.38 0.143 1.94 0.0315 3.88 0.0585 5.81 0.0802 4.98 0.0753 9.84 0.353 14.8 0.992 7.37 0.81 14.7-0.0216 22.1-0.778 0.961-0.0954 1.92-0.191 2.91-0.289 2.34-0.233 4.68-0.47 7.03-0.711v-6c4.55-0.313 9.11-0.616 13.7-0.909 1.55-0.101 3.09-0.205 4.64-0.312 2.23-0.154 4.47-0.297 6.7-0.439 0.681-0.0489 1.36-0.0978 2.06-0.148 4.81-0.293 9.2 0.0317 13.9 0.808 1 1 1 1 1.1 2.85-0.0326 2.05-0.0651 4.1-0.0977 6.15h15c-0.66-0.33-1.32-0.66-2-1v-3c0.66-0.33 1.32-0.66 2-1-0.66-0.33-1.32-0.66-2-1v-2c3.92-2.61 7.44-2.22 12-2 0.99 0.33 1.98 0.66 3 1 8.48-0.048 16.8-1.33 25-2.98 5.64-1.09 10.6-1.73 16.2-0.0418z" fill="#006A34"/>
<path transform="translate(921,564)" d="m0 0h6c0.784 11.9 0.784 11.9-2.31 16.2-2.69 1.75-2.69 1.75-5.69 2.75 0.405 12.1 0.898 24 3 36h2c3.25 6.21 3.67 12.1 4 19h2c0.33 0.66 0.66 1.32 1 2 1.63 0.497 3.28 0.925 4.94 1.31 4.85 1.34 4.85 1.34 6.69 4.38 0.124 0.763 0.247 1.53 0.375 2.31h3c0.33 0.99 0.66 1.98 1 3 9.43 0.238 17.5 0.419 26-4h3v-2c7.27-6.31 14.6-6.89 23.8-6.87 1.4-0.0175 2.79-0.0373 4.19-0.0593 3.85-0.0519 7.7-0.0647 11.5-0.0687 3.32-0.00691 6.64-0.0329 9.96-0.0579 11.4-0.0833 22.8-0.085 34.2-0.0779 5.5 0.0023 11-0.00125 16.5-0.00398 10.7-0.00441 21.4-0.0035 32.2-5.87e-4 8.72 0.00227 17.4 0.00256 26.1 0.00148 1.87-2.3e-4 1.87-2.3e-4 3.78-4.64e-4 2.54-3.2e-4 5.07-6.44e-4 7.61-9.73e-4 23-0.00276 46 8.53e-5 69 0.00534 21 0.00475 41.9 0.00431 62.9-4.61e-4 23.6-0.00536 47.2-0.00745 70.9-0.00439 2.52 3.19e-4 5.04 6.33e-4 7.56 9.43e-4 1.24 1.54e-4 2.48 3.09e-4 3.76 4.68e-4 8.7 8.61e-4 17.4-5.88e-4 26.1-0.00295 10.6-0.00281 21.2-0.00203 31.8 0.00328 5.4 0.00262 10.8 0.00368 16.2 3.51e-4 4.96-0.00301 9.92-0.0013 14.9 0.00398 1.78 0.00111 3.56 5.75e-4 5.34-0.00188 9.07-0.0115 18.1 0.125 27.2 0.576 0.807 0.0387 1.61 0.0775 2.45 0.117 3.21 0.178 5.97 0.414 9.04 1.44 2.57 0.227 5.12 0.416 7.69 0.562 1.05 0.0648 1.05 0.0648 2.13 0.131 1.73 0.106 3.46 0.207 5.19 0.307v3h2v4h6v-3c1.32-0.33 2.64-0.66 4-1v9h6v-9h5v-4h5c0.33-0.66 0.66-1.32 1-2v6h3v9h2v2h2c0.33 4.62 0.66 9.24 1 14h2v7c0.66 0.33 1.32 0.66 2 1-0.66 1.32-1.32 2.64-2 4h2c0.33-2.97 0.66-5.94 1-9h3v-5h3v-2h4v-3c0.66-0.33 1.32-0.66 2-1 1.13-2.02 1.13-2.02 2-4-0.33 2.64-0.66 5.28-1 8h2v-3h2c0.33 1.65 0.66 3.3 1 5h2c0.33 0.99 0.66 1.98 1 3 0.66-0.99 1.32-1.98 2-3h2c-0.33 3.96-0.66 7.92-1 12h2c-0.0619-1.86-0.0619-1.86-0.125-3.75-0.0116-3.27 0.268-5.46 2.12-8.25 1 1 1 1 1.1 3.5-0.0174 1.51-0.0174 1.51-0.0352 3.06-0.00902 1.01-0.018 2.02-0.0273 3.07-0.0174 1.17-0.0174 1.17-0.0352 2.37h2v18h-4v2h-3v-2h-2v2h-2c-0.33 1.32-0.66 2.64-1 4 0.675 0.0374 1.35 0.0748 2.05 0.113 0.892 0.0657 1.78 0.131 2.7 0.199 0.882 0.058 1.76 0.116 2.67 0.176 2.93 0.582 4.3 1.62 6.58 3.51 1.65 0.712 3.31 1.39 5 2v1c-64 0.0171-128 0.033-192 0.0423-0.947 1.38e-4 -1.89 2.76e-4 -2.87 4.18e-4 -20.6 0.00299-41.2 0.00576-61.7 0.0083-10.1 0.00125-20.2 0.00254-30.3 0.00387-1.51 1.96e-4 -1.51 1.96e-4 -3.04 3.96e-4 -32.6 0.00426-65.2 0.0118-97.7 0.021-33.5 0.00942-66.9 0.0156-100 0.0176-4.72 2.88e-4 -9.44 6.14e-4 -14.2 9.62e-4 -0.929 6.74e-5 -1.86 1.35e-4 -2.82 2.04e-4 -15 0.00118-30 0.00583-45 0.0118-15.1 0.00587-30.1 0.00814-45.2 0.00667-8.95-7.63e-4 -17.9 0.00129-26.9 0.0073-5.97 0.00373-11.9 0.00388-17.9 0.00103-3.41-0.00152-6.82-0.00141-10.2 0.00305-3.66 0.00396-7.32 0.00188-11-0.00184-1.07 0.00263-2.15 0.00525-3.25 0.00796-0.968-0.00225-1.94-0.00449-2.93-0.00681-0.838 1.56e-4 -1.68 3.12e-4 -2.54 4.73e-4 -2.02-0.125-2.02-0.125-4.02-1.12 0.33-0.66 0.66-1.32 1-2h1c0.0824-4.2-0.177-7.9-1-12-0.411-3.4-0.805-6.8-1.16-10.2-0.429-3.71-1.12-6.51-2.84-9.79-0.195-2.36-0.195-2.36-0.125-4.75 0.018-0.799 0.0361-1.6 0.0547-2.42 0.0232-0.603 0.0464-1.21 0.0703-1.83 3 1 3 1 5 4v4h2c-0.33-1.65-0.66-3.3-1-5h2v5h5c1.36-1.54 1.36-1.54 2-4-0.639-2.06-1.48-3.98-2.33-5.96-0.953-2.89-0.466-5.15 0.328-8.04h-2v-5h-3c-1.33-6.97-1.09-13.9-1-21h-2l-3-3c-1.49-0.495-1.49-0.495-3-1-0.33-1.98-0.66-3.96-1-6h2v-9c-2.48 0.495-2.48 0.495-5 1v-4c-1.32-0.33-2.64-0.66-4-1-0.11-0.915-0.219-1.83-0.332-2.77-0.159-1.19-0.317-2.38-0.48-3.6-0.151-1.18-0.302-2.37-0.457-3.59-0.437-3.33-0.437-3.33-3.73-5.04-1-3.38-1-3.38-1-7 2.25-2.19 2.25-2.19 5-4 0.424-0.672 0.848-1.34 1.29-2.04 2.39-2.74 4.35-2.76 7.9-3.21 1.09-0.15 2.17-0.299 3.29-0.453 0.831-0.098 1.66-0.196 2.52-0.297v-1h5v-2h-6c-0.33-0.66-0.66-1.32-1-2 3.47-0.495 3.47-0.495 7-1v-5z" fill="#F9D713"/>
<path transform="translate(798,358)" d="m0 0c0.99 0.33 1.98 0.66 3 1 0.948 1.92 0.948 1.92 1.76 4.47 0.31 0.951 0.621 1.9 0.94 2.88 0.325 1.04 0.65 2.08 0.986 3.15 0.345 1.07 0.69 2.14 1.05 3.24 1.1 3.42 2.18 6.84 3.27 10.3 0.707 2.2 1.42 4.4 2.12 6.59 2.58 8.01 5.14 16 7.63 24.1 2.87 9.26 5.91 18.5 9 27.7 0.524 1.57 1.05 3.13 1.57 4.7 0.792 2.37 1.59 4.74 2.38 7.11 1.69 5.05 3.37 10.1 5.05 15.1 0.415 1.25 0.83 2.5 1.26 3.79 0.774 2.33 1.55 4.66 2.32 7 0.341 1.03 0.683 2.05 1.03 3.11 0.295 0.892 0.591 1.78 0.895 2.7 0.704 2.15 0.704 2.15 1.75 4.13 0.703 0.00331 1.41 0.00662 2.13 0.01 17.1 0.0812 34.2 0.173 51.3 0.277 8.27 0.0502 16.5 0.0966 24.8 0.134 7.21 0.0329 14.4 0.0727 21.6 0.121 3.82 0.0253 7.63 0.0471 11.5 0.0606 3.59 0.0128 7.18 0.0348 10.8 0.064 1.95 0.0134 3.9 0.017 5.85 0.0203 1.16 0.0112 2.31 0.0223 3.51 0.0338 1.01 0.00553 2.02 0.0111 3.05 0.0168 2.51 0.262 2.51 0.262 5.51 2.26h-2c-0.33 0.99-0.66 1.98-1 3h-2c-0.33 0.99-0.66 1.98-1 3-1.96 1.4-3.97 2.72-6 4-2.24 1.57-4.47 3.16-6.69 4.75-0.604 0.431-1.21 0.862-1.83 1.31-2.94 2.1-5.87 4.22-8.77 6.37-1.47 1.09-1.47 1.09-2.96 2.2-0.871 0.652-1.74 1.3-2.64 1.98-2.11 1.4-2.11 1.4-4.11 1.4v2c-1.58 1.23-1.58 1.23-3.81 2.62-5.56 3.58-10.9 7.46-16.2 11.4-1.83 1.33-3.67 2.67-5.5 4-2.72 1.97-5.43 3.95-8.14 5.93-4.02 2.93-8.04 5.85-12.1 8.73-0.635 0.451-1.27 0.903-1.92 1.37-1.25 0.886-2.5 1.77-3.75 2.65-2.35 1.67-4.55 3.28-6.59 5.32h-3c-0.33 0.99-0.66 1.98-1 3-3.18 2.34-6.41 4.34-10 6-0.186 4.94 0.311 8.81 1.86 13.5 0.393 1.2 0.785 2.4 1.19 3.64 0.416 1.24 0.831 2.47 1.26 3.75 0.404 1.23 0.808 2.46 1.22 3.72 1.14 3.47 2.3 6.94 3.46 10.4 1.96 5.85 3.89 11.7 5.79 17.6 0.531 1.64 1.06 3.28 1.59 4.92 0.275 0.848 0.549 1.7 0.832 2.57 4.35 13.4 8.74 26.9 13.2 40.3 5.8 17.4 5.8 17.4 8.25 24.9 0.256 0.775 0.513 1.55 0.777 2.35 1.65 5.17 1.65 5.17 0.535 7.4-8.64-5.1-16.9-10.8-25-16.7-1.91-1.38-1.91-1.38-3.96-2.35v-2c-0.598-0.103-1.2-0.206-1.81-0.312-2.55-0.802-3.33-1.8-5.19-3.69-1.35-1.06-2.72-2.09-4.1-3.11-1.2-0.88-1.2-0.88-2.41-1.78-0.842-0.615-1.68-1.23-2.55-1.86-0.86-0.631-1.72-1.26-2.61-1.91-5.72-4.19-11.5-8.32-17.3-12.3-4.84-3.33-9.64-6.67-14.2-10.3-6.08-4.79-12.4-9.22-18.8-13.7-1.01-0.713-2.01-1.43-3.05-2.16-4.33-3.15-4.33-3.15-8.95-5.84v-2c-7.27 1.19-11.5 4.26-17 9-4.61 3.77-4.61 3.77-7.18 5.28-3.53 2.16-6.81 4.58-10.1 7.04-0.672 0.495-1.34 0.99-2.03 1.5-3.25 2.4-6.49 4.81-9.72 7.25-4.14 3.12-8.37 6.12-12.6 9.12-7.54 5.37-15 10.8-22.4 16.4-4.35 3.27-8.74 6.45-13.2 9.54-2.11 1.47-4.19 2.97-6.27 4.48-0.931 0.676-0.931 0.676-1.88 1.37-1.22 0.887-2.44 1.78-3.65 2.67-3.19 2.31-6.18 4.11-9.91 5.38-1.11-4.92-0.906-7.58 1.18-12.1 1.3-2.97 2.19-6.05 3.12-9.15 1.83-5.99 3.75-11.9 5.74-17.9 0.386-1.15 0.386-1.15 0.78-2.32 1.06-3.14 2.11-6.28 3.17-9.41 0.789-2.34 1.57-4.67 2.36-7.01 0.236-0.696 0.473-1.39 0.717-2.11 1.55-4.62 2.77-9.25 3.93-14 0.844-2.52 1.71-5.01 2.62-7.5 11.9-26 11.9-26 14.4-52.5-1.51-1.53-1.51-1.53-3.46-2.8-0.723-0.513-1.45-1.03-2.19-1.55-0.775-0.542-1.55-1.08-2.35-1.64-1.58-1.17-3.15-2.33-4.73-3.51-1.63-1.21-3.27-2.41-4.9-3.62-0.82-0.607-1.64-1.21-2.48-1.84-3.36-2.48-6.71-4.91-10.2-7.23-2.62-1.75-5.03-3.62-7.46-5.62-4.92-3.98-10-7.61-15.2-11.2-1.67-1.16-3.33-2.33-5-3.5-2.4-1.68-4.81-3.37-7.22-5.04-6.64-4.61-13.2-9.35-19.7-14.1-0.755-0.548-1.51-1.1-2.29-1.66-0.68-0.495-1.36-0.99-2.06-1.5-1.71-1.25-1.71-1.25-3.72-2.2v-2c-0.728-0.258-1.46-0.516-2.21-0.781-2.9-1.27-5.01-2.74-7.48-4.72-0.767-0.608-1.53-1.22-2.32-1.84-1.99-1.66-1.99-1.66-3.99-3.66v-3h140c0.33-1.98 0.66-3.96 1-6 0.357-1.34 0.746-2.67 1.17-3.99 0.245-0.766 0.49-1.53 0.743-2.32 0.276-0.845 0.551-1.69 0.835-2.56 0.449-1.39 0.449-1.39 0.907-2.82 0.701-2.17 1.4-4.34 2.11-6.51 1.13-3.49 2.26-6.99 3.39-10.5 4.67-14.4 9.34-28.9 14.2-43.3 0.268-0.799 0.537-1.6 0.813-2.42 1.26-3.76 2.53-7.52 3.81-11.3 2.71-8.02 5.16-16.1 7.35-24.3 1.49-5.55 3.34-10.8 5.7-16.1z" fill="#000100"/>
<path transform="translate(4,779)" d="m0 0h1v249c0.809-4.85 1.18-9.37 1.25-14.2 0.0329-1.59 0.0661-3.19 0.0996-4.78 0.0474-2.49 0.0919-4.98 0.131-7.46 0.0399-2.42 0.0914-4.84 0.144-7.25 0.00841-0.738 0.0168-1.48 0.0255-2.24 0.104-4.39 0.911-7.9 2.35-12-0.33-0.66-0.66-1.32-1-2 0.938-2.12 0.938-2.12 2-4h1v7h2v-170h-2c-0.155 0.959-0.155 0.959-0.312 1.94-0.227 0.681-0.454 1.36-0.688 2.06-1.48 0.495-1.48 0.495-3 1-0.351-5.84-0.167-9.85 3-15 0.99 0.33 1.98 0.66 3 1v-22h1c0.00331 1.16 0.00662 2.31 0.01 3.51 0.0793 27.6 0.169 55.2 0.27 82.7 0.0125 3.41 0.0249 6.82 0.0373 10.2 0.00247 0.678 0.00493 1.36 0.00747 2.06 0.0395 10.9 0.0724 21.9 0.103 32.8 0.0313 11.2 0.0701 22.5 0.115 33.7 0.0251 6.3 0.0469 12.6 0.0606 18.9 0.013 5.95 0.0352 11.9 0.064 17.9 0.00894 2.16 0.0147 4.33 0.0168 6.49 0.0131 11.5 0.342 22.9 1.21 34.4 0.0772 1.06 0.154 2.12 0.234 3.21 0.0823 0.988 0.165 1.98 0.249 3 0.0713 0.869 0.143 1.74 0.216 2.63 0.442 2.71 1.38 4.95 2.41 7.48v3h2l2-3c0.66 0.33 1.32 0.66 2 1 1.66 0.202 3.33 0.364 5 0.5 4.78 0.389 4.78 0.389 7 1.5v2h3v2c1.26-0.186 2.52-0.371 3.81-0.562 3.01-0.445 4.19-0.436 7.19 0.562v3c46 0.0055 92.1 0.0108 138 0.0159 0.901 9.98e-5 1.8 2e-4 2.73 3.02e-4 96.5 0.0107 193 0.0199 290 0.0262 2.14 1.39e-4 4.29 2.79e-4 6.43 4.18e-4 45 0.00292 90 0.00564 135 0.00812 22.6 0.00125 45.2 0.00253 67.8 0.00385 3.41 1.99e-4 6.82 3.97e-4 10.2 5.95e-4 52.5 0.00306 105 0.00697 158 0.0133 1.13 1.37e-4 2.26 2.74e-4 3.42 4.15e-4 18.2 0.00221 36.4 0.0045 54.6 0.00679 52.4 0.0066 105 0.0127 157 0.0153 1.08 5.35e-5 2.16 1.07e-4 3.27 1.62e-4 23.7 0.00117 47.3 0.00206 71 0.0027 9.52 2.62e-4 19 5.62e-4 28.6 8.76e-4 1.04 3.34e-5 2.08 6.69e-5 3.16 1.01e-4 33.6 0.0011 67.2 0.00537 101 0.0113 33.8 0.00596 67.7 0.00882 101 0.00734 4.67-2.03e-4 9.34-3.7e-4 14-5.16e-4 0.915-2.99e-5 1.83-5.98e-5 2.77-9.05e-5 14.5-3.81e-4 29 0.00261 43.6 0.00699 14.3 0.00424 28.5 0.00494 42.8 0.00182 8.37-0.00172 16.7-6.76e-4 25.1 0.00439 6.2 0.00345 12.4 0.00172 18.6-0.00208 2.5-7.18e-4 5.01 2.65e-4 7.51 0.0031 3.38 0.00358 6.77 0.00106 10.2-0.00304 0.975 0.00251 1.95 0.00502 2.96 0.0076 4.95-0.0129 9.72-0.101 14.6-1.13 0.33-0.66 0.66-1.32 1-2 4.95 0.33 9.9 0.66 15 1v-2h6c-0.66-0.33-1.32-0.66-2-1v-2c4.41-1.47 7.48-2.37 12-1 0.205 0.626 0.41 1.25 0.621 1.9 0.269 0.817 0.539 1.63 0.816 2.48 0.4 1.22 0.4 1.22 0.809 2.46 0.706 2.17 0.706 2.17 1.75 4.16v12h-1594c0.66-2.31 1.32-4.62 2-7h2c0.504-5.04-0.743-7.93-3.22-12.2-0.777-1.83-0.777-1.83 0.223-4.83h-2c0.33 1.98 0.66 3.96 1 6-1.32-0.66-2.64-1.32-4-2 0.33-0.66 0.66-1.32 1-2-0.143-0.832-0.285-1.66-0.432-2.52-0.721-4.42-0.687-8.69-0.657-13.2 0.00252-0.968 0.00505-1.94 0.00765-2.93 0.00972-3.24 0.0268-6.48 0.0438-9.73 0.00851-2.33 0.0166-4.65 0.0242-6.98 0.0222-6.32 0.0509-12.6 0.081-19 0.0276-5.95 0.051-11.9 0.0746-17.9 0.05-12.5 0.106-25.1 0.165-37.6 0.0498-10.7 0.0946-21.4 0.136-32.1 0.0477-12.5 0.0983-24.9 0.154-37.4 0.0293-6.59 0.0574-13.2 0.0823-19.8 0.0237-6.21 0.052-12.4 0.0837-18.6 0.0109-2.27 0.0202-4.53 0.0278-6.8 0.0443-12.9 0.334-25.7 1.21-38.6z" fill="#006E2F"/>
<path transform="translate(135 260)" d="m0 0c2.61 0.112 5.21 0.221 7.82 0.326 1.31 0.0533 2.62 0.107 3.97 0.161 10.3 0.359 20.7 0.271 31 0.26 2.6 0.00116 5.2 0.00275 7.8 0.00473 5.59 0.00357 11.2 0.00353 16.8 9.53e-4 8.31-0.00382 16.6-0.00183 24.9 0.00121 14.9 0.00524 29.7 0.00482 44.6 0.00192 13-0.00253 26.1-0.00317 39.1-0.00198 0.869 7.64e-5 1.74 1.53e-4 2.63 2.31e-4 3.53 3.11e-4 7.06 6.3e-4 10.6 9.6e-4 33.1 0.00305 66.1 2.96e-4 99.2-0.0051 29.2-0.00473 58.4-0.00433 87.7 4.61e-4 33 0.00539 65.9 0.00746 98.9 0.00439 3.53-3.21e-4 7.07-6.33e-4 10.6-9.43e-4 0.87-7.91e-5 1.74-1.58e-4 2.64-2.4e-4 13-0.00113 26 1.7e-4 39 0.00272 14.8 0.0029 29.7 0.00207 44.5-0.00328 7.54-0.00263 15.1-0.00385 22.6-3.51e-4 8.25 0.00363 16.5 0.00186 24.8-0.00568 1.31-0.0011 2.61-0.00221 3.96-0.00334 15.1-0.0193 30.2-0.136 45.4-0.39 0.733-0.0122 1.47-0.0244 2.22-0.037 7.74-0.13 15.5-0.273 23.2-0.435 11-0.218 21.8-0.367 32.8 0.495 9.38 0.658 18.8 0.361 28.2 0.337 2.44-0.00243 4.87-0.00441 7.31-0.00596 5.27-0.00436 10.5-0.0118 15.8-0.022 7.84-0.0151 15.7-0.0243 23.5-0.0321 12.4-0.0124 24.8-0.0282 37.2-0.0463 19.7-0.0286 39.3-0.0466 59-0.0611 4.19-0.00311 8.38-0.00633 12.6-0.00954 0.835-6.4e-4 1.67-0.00128 2.53-0.00194 1.69-0.0013 3.38-0.0026 5.08-0.00389 1.7-0.0013 3.4-0.0026 5.09-0.0039 20-0.0153 40-0.0324 60-0.0509 0.875-8.06e-4 1.75-0.00161 2.65-0.00244 28.4-0.0262 56.8-0.0629 85.2-0.104 29.2-0.0421 58.4-0.0709 87.6-0.0839 4.12-0.00185 8.25-0.00387 12.4-6e-3 0.812-4.16e-4 1.62-8.32e-4 2.46-0.00126 13.1-0.00712 26.1-0.0286 39.2-0.0555 13.1-0.0268 26.2-0.0393 39.4-0.0371 7.79 8.68e-4 15.6-0.00947 23.4-0.0358 5.82-0.0185 11.6-0.016 17.5-0.00548 2.35 9.98e-4 4.71-0.0048 7.06-0.018 3.2-0.017 6.4-0.00933 9.59 0.00446 0.914-0.0108 1.83-0.0216 2.77-0.0327 6.57 0.0665 11.7 1.73 17.6 4.52-2.65 1.46-3.89 2-7 2 1.09 0.433 2.19 0.866 3.31 1.31 2.76 1.18 4.86 2.21 6.69 4.69v2c0.66 0.33 1.32 0.66 2 1-6.65 1.69-12.8 2.33-19.6 2.41-1.07 0.019-2.14 0.0381-3.24 0.0577-3.68 0.0609-7.35 0.106-11 0.15-1.34 0.0183-2.69 0.037-4.03 0.056-45.5 0.633-91 0.474-136 0.463-9.55-0.00235-19.1-0.00259-28.6-0.00149-0.687 7.64e-5 -1.37 1.53e-4 -2.08 2.31e-4 -2.79 3.12e-4 -5.58 6.3e-4 -8.38 9.6e-4 -26 0.00303-52 3.25e-4 -78-0.0051-22.9-0.00474-45.8-0.00432-68.8 4.61e-4 -26 0.00539-51.9 0.00746-77.9 0.00439-2.78-3.21e-4 -5.57-6.33e-4 -8.35-9.43e-4 -0.685-7.91e-5 -1.37-1.58e-4 -2.08-2.4e-4 -9.53-0.00105-19.1-1.56e-4 -28.6 0.00223-105 0.0259-105 0.0259-144-0.844-33.1-0.74-66.3-0.457-99.4-0.0683-1.37 0.016-1.37 0.016-2.76 0.0324-1.88 0.0221-3.76 0.0442-5.64 0.0663-44.2 0.519-88.5 0.789-133 0.839-0.671 7.66e-4 -1.34 0.00153-2.03 0.00232-19.8 0.0223-39.7 0.0313-59.5 0.0374-7.5 0.00238-15 0.00599-22.5 0.0097-25.8 0.0127-51.7 0.0235-77.5 0.027-1.6 2.22e-4 -3.19 4.43e-4 -4.79 6.65e-4 -1.6 2.21e-4 -3.2 4.41e-4 -4.8 6.61e-4 -3.21 4.42e-4 -6.41 8.9e-4 -9.62 0.00134-0.795 1.09e-4 -1.59 2.19e-4 -2.41 3.31e-4 -26 0.00366-52 0.0197-78 0.0429-27.7 0.0246-55.4 0.0383-83.2 0.0395-3.04 1.71e-4 -6.08 3.87e-4 -9.12 6.34e-4 -0.748 5.58e-5 -1.5 1.12e-4 -2.27 1.69e-4 -12 0.00115-23.9 0.0121-35.9 0.0267-12 0.0144-24 0.0176-35.9 0.00956-6.48-0.0039-13-3e-3 -19.4 0.0111-5.93 0.0128-11.9 0.0115-17.8-5.91e-4 -2.14-0.00195-4.27 0.0011-6.41 0.00984-30.9 0.118-30.9 0.118-37-4.98-0.355-0.461-0.71-0.921-1.08-1.4 1.65-0.33 3.3-0.66 5-1v-2c3.96-0.99 7.92-1.98 12-3-3.96-0.33-7.92-0.66-12-1 9.6-6.4 20.3-6.2 31.4-5.62z" fill="#D00C21"/>
<path transform="translate(803,628)" d="m0 0v2c1.08 0.381 1.08 0.381 2.18 0.77 3.04 1.32 5.36 2.93 8.01 4.92 3.61 2.68 7.23 5.32 10.9 7.88 3.14 2.18 6.19 4.44 9.19 6.81 3.95 3.11 8.03 5.96 12.2 8.79 5.99 4.12 11.8 8.46 17.7 12.8 5.03 3.73 10.1 7.35 15.3 10.8 0.501 0.407 1 0.815 1.52 1.23v2c1.32 0.33 2.64 0.66 4 1v2c1.09 0.394 1.09 0.394 2.2 0.797 2.84 1.22 5.05 2.64 7.55 4.45 6.27 4.49 12.6 8.84 19.2 12.8 0.99 0.66 1.98 1.32 3 2 2.24 0.301 2.24 0.301 4.76 0.255 0.987 0.00593 1.97 0.0119 2.99 0.018 1.09-0.00365 2.18-0.0073 3.3-0.0111 1.16 4e-3 2.32 0.00799 3.51 0.0121 3.23 0.00912 6.47 0.00923 9.7 0.00565 3.51-0.0017 7.02 0.00814 10.5 0.0166 6.16 0.0132 12.3 0.0189 18.5 0.0198 9.16 0.00137 18.3 0.0141 27.5 0.0293 15.4 0.0252 30.8 0.041 46.2 0.0516 15.3 0.0105 30.5 0.0251 45.8 0.0453 0.948 0.00125 1.9 0.0025 2.87 0.00378 4.81 0.00636 9.63 0.0128 14.4 0.0193 34.1 0.0457 68.2 0.0821 102 0.113 33.2 0.0302 66.3 0.0645 99.5 0.104 1.02 0.00123 2.04 0.00246 3.1 0.00373 10.3 0.0124 20.5 0.0248 30.8 0.0373 20.9 0.0255 41.8 0.0504 62.7 0.075 0.961 0.00113 1.92 0.00226 2.91 0.00343 64.2 0.0755 128 0.138 193 0.198v6c-1.14-0.278-1.14-0.278-2.31-0.562-2.78-0.666-2.78-0.666-5.69 0.562-3.06 0.306-6.12 0.508-9.19 0.719-2.89 0.185-2.89 0.185-5.81 1.28 0.0619 0.949 0.124 1.9 0.188 2.88-0.0619 1.03-0.124 2.06-0.188 3.12-1.49 0.99-1.49 0.99-3 2v-3c-0.33 0.66-0.66 1.32-1 2h-14c-2-6.88-2-6.88-2-8-1.19 3.8e-4 -2.39 7.59e-4 -3.61 0.00115-52.6 0.0167-105 0.0321-158 0.0412-1.2 2.07e-4 -1.2 2.07e-4 -2.41 4.18e-4 -17.3 0.00299-34.6 0.00576-52 0.0083-8.49 0.00125-17 0.00254-25.5 0.00387-0.845 1.31e-4 -1.69 2.62e-4 -2.56 3.96e-4 -27.4 0.00426-54.7 0.0118-82.1 0.021-28.1 0.00944-56.3 0.0156-84.4 0.0176-3.98 2.88e-4 -7.96 6.14e-4 -11.9 9.62e-4 -0.783 6.74e-5 -1.57 1.35e-4 -2.37 2.04e-4 -12.6 0.00118-25.2 0.00581-37.7 0.0118-12.7 0.0059-25.3 0.00813-38 0.00667-6.86-6.92e-4 -13.7 1.99e-4 -20.6 0.0057-6.28 0.00489-12.6 0.0051-18.9 0.00169-2.27-4.2e-4 -4.53 8.29e-4 -6.8 0.00398-10.1 0.0133-20.3-0.0153-30.4-0.507-1.06-0.0456-1.06-0.0456-2.15-0.0921-4.51-0.258-8.49-1.22-12.8-2.53-5.16-0.322-9.9 0.423-14.9 1.44-6.01 1.14-12 1.94-18.1 2.31-0.688 0.0444-1.38 0.0888-2.09 0.135-1.64 0.0854-3.28 0.107-4.91 0.115l-1-1c-1.35-0.231-2.7-0.412-4.06-0.562-1.3-0.144-2.6-0.289-3.94-0.438-0.33 0.66-0.66 1.32-1 2h-3v2c0.99 0.33 1.98 0.66 3 1-1.49 0.495-1.49 0.495-3 1v3c0.99 0.33 1.98 0.66 3 1v1c-5.45 0.0969-10.6 0.129-16-1-0.33-2.64-0.66-5.28-1-8-6.21-0.975-12-0.958-18.2-0.562-7.6 0.426-15.1 0.704-22.8 0.562v3c0.66 0.33 1.32 0.66 2 1h-2v2c-3.43 1.71-7.29 1.68-11.1 2.06-1.23 0.136-1.23 0.136-2.49 0.275-6.91 0.723-13.7 1.06-20.6 0.17-5.15-0.592-10.3-0.695-15.4-0.754-2.02-0.0329-4.03-0.0661-6.05-0.0996-3.14-0.0473-6.27-0.0918-9.41-0.131-3.06-0.0401-6.11-0.0915-9.17-0.144-0.921-0.00841-1.84-0.0168-2.79-0.0255-6.51-0.122-12.7-1.02-19-2.35 2-2 2-2 4.9-2.24 1.24 0.00444 2.48 0.00888 3.75 0.0135 0.683-2.92e-4 1.37-5.84e-4 2.07-8.85e-4 2.26 0.0014 4.52 0.017 6.79 0.0326 1.57 0.00373 3.13 0.00658 4.7 0.00858 4.13 0.00764 8.25 0.0273 12.4 0.0494 4.21 0.0204 8.42 0.0296 12.6 0.0397 8.26 0.0215 16.5 0.0556 24.8 0.0977-0.33-0.99-0.66-1.98-1-3-27.8-0.607-55.6-1.1-83.4-1.12-1.08-0.0025-2.16-5e-3 -3.27-0.00757-10.9-0.021-21.8 0.119-32.7 0.906-5.58 0.356-11.2 0.373-16.8 0.352-1.08 0.00387-2.16 0.00773-3.27 0.0117-1.04-0.00129-2.08-0.00258-3.15-0.00391-0.919-0.00113-1.84-0.00226-2.79-0.00342-2.61-0.129-2.61-0.129-5.3-0.696-2.81-0.528-3.93 0.0714-6.31 1.57v1c-4.46 0.213-7.84-0.355-12-2l-1-1c-3.13-0.0982-6.24-0.13-9.36-0.12-1-8.54e-4 -2-0.00171-3.03-0.00259-3.4-0.00166-6.79 0.00389-10.2 0.00932-2.44 2.8e-4 -4.88 1.18e-4 -7.33-4.51e-4 -5.33-2.35e-4 -10.7 0.00265-16 0.00823-7.93 0.00827-15.9 0.0108-23.8 0.0121-13.3 0.00234-26.7 0.0092-40 0.0185-18.2 0.0126-36.4 0.0186-54.6 0.0229-8.48 0.00201-17 0.00433-25.4 0.00674-0.849 2.41e-4 -1.7 4.82e-4 -2.57 7.3e-4 -20.2 0.00582-40.4 0.0148-60.7 0.0242-1.33 6.2e-4 -1.33 6.2e-4 -2.68 0.00125-14.4 0.00672-28.7 0.0136-43.1 0.0206-13.4 0.00649-26.9 0.0129-40.3 0.0192-0.884 4.15e-4 -1.77 8.29e-4 -2.68 0.00126-20.2 0.00945-40.4 0.018-60.5 0.0237-0.848 2.41e-4 -1.7 4.82e-4 -2.57 7.3e-4 -8.46 0.00239-16.9 0.00461-25.4 0.00661-18.2 0.00432-36.4 0.0114-54.6 0.024-13.3 0.00918-26.5 0.0149-39.8 0.0171-7.89 0.00142-15.8 0.00568-23.7 0.0139-5.88 0.00587-11.8 0.00654-17.6 0.00518-2.38 2.72e-4 -4.77 0.00226-7.15 0.00609-3.23 0.00496-6.47 0.00379-9.7 0.00105-0.933 0.00291-1.87 0.00583-2.83 0.00883-4.87-0.0112-9.48-0.339-14.3-1.13-4.39-0.209-8.79-0.19-13.2-0.188-1.23-6.45e-4 -2.46-0.00129-3.73-0.00195-10.5 0.0597-20.7 0.852-31.1 2.19v-1c-1.58-0.365-3.16-0.717-4.75-1.06-0.882-0.197-1.76-0.394-2.67-0.598-2.56-0.338-4.15-0.151-6.58 0.66v-6h685v-2c1.51-0.826 1.51-0.826 3.04-1.67 3.98-2.27 7.61-4.9 11.3-7.64 1.33-0.988 2.66-1.97 3.99-2.96 0.638-0.473 1.28-0.946 1.93-1.43 2.21-1.62 4.45-3.18 6.7-4.73 5.23-3.62 10.3-7.46 15.4-11.3 3.82-2.89 7.7-5.63 11.7-8.26 2.2-1.53 4.38-3.07 6.56-4.62 0.605-0.432 1.21-0.863 1.83-1.31 4.71-3.38 9.32-6.89 13.9-10.4 7.06-5.47 14.3-10.7 21.7-15.6 1.34-0.993 2.67-1.99 4-3 0.678-0.508 1.36-1.02 2.05-1.54 1.69-1.27 3.38-2.55 5.07-3.84 3.25-1.84 5.2-1.98 8.88-1.62z" fill="#006936"/>
<path transform="translate(130 96.9)" d="m0 0c1.41-0.00248 1.41-0.00248 2.86-5e-3 3.15-0.0043 6.29-0.00153 9.44 0.00123 2.29-0.00165 4.59-0.00374 6.88-0.00622 6.32-0.00556 12.6-0.0049 19-0.00322 6.16 0.00115 12.3-0.00338 18.5-0.00726 12.7-0.00786 25.5-0.011 38.2-0.0114 12.9-5.03e-4 25.8-0.00315 38.8-0.00841 0.816-3.3e-4 1.63-6.6e-4 2.47-1e-3 3.32-0.00135 6.65-0.00271 9.97-0.00409 39.3-0.0163 78.7-0.0227 118-0.0274 19.6-0.00238 39.2-0.00609 58.8-0.01 62.8-0.0127 126-0.0234 188-0.0268 3-1.62e-4 6-3.28e-4 9-4.94e-4 6.02-3.34e-4 12-6.64e-4 18.1-9.95e-4 7.05-3.87e-4 14.1-7.77e-4 21.1-0.00117 2.02-1.12e-4 4.03-2.24e-4 6.05-3.34e-4 64.8-0.00355 130-0.0186 194-0.0419 46.6-0.0167 93.1-0.0322 140-0.0367 1.44-1.4e-4 1.44-1.4e-4 2.9-2.83e-4 21-0.00202 42-0.00318 63-0.00353 7.52-1.36e-4 15-3.45e-4 22.6-5.93e-4 1.87-6.16e-5 3.74-1.2e-4 5.61-1.75e-4 29.8-9.2e-4 59.7-0.0109 89.5-0.0255 30-0.0146 60.1-0.0197 90.1-0.0116 4.15 0.00112 8.29 0.00213 12.4 0.00307 0.813 1.9e-4 1.63 3.8e-4 2.46 5.76e-4 12.9 0.00274 25.8-0.00462 38.7-0.0161 12.7-0.0111 25.3-0.0116 38-6.3e-4 6.78 0.00557 13.6 0.00601 20.3-0.00651 6.16-0.0113 12.3-0.00887 18.5 0.00467 2.22 0.00244 4.44-1.87e-4 6.66-0.0084 3.01-0.0104 6.01-0.00235 9.02 0.0103 0.859-0.00741 1.72-0.0148 2.6-0.0224 5.84 0.0517 10.7 1.25 16.1 3.4-0.165 0.578-0.33 1.16-0.5 1.75-0.645 2.52-0.645 2.52-0.5 6.25-2.78 0.926-4.54 1.15-7.42 1.2-0.905 0.0195-1.81 0.039-2.74 0.0591-1.48 0.0244-1.48 0.0244-3 0.0494-1.04 0.0205-2.08 0.0409-3.16 0.062-3.47 0.0658-6.94 0.124-10.4 0.18-1.2 0.021-2.41 0.0419-3.65 0.0635-26.1 0.45-52.1 0.528-78.2 0.517-5.93-0.0015-11.9 0.00181-17.8 0.00487-12.2 0.00614-24.4 0.00772-36.7 0.00658-12.3-0.00113-24.7-5.77e-5 -37 0.00357-0.786 2.3e-4 -1.57 4.59e-4 -2.38 6.96e-4 -3.2 9.42e-4 -6.41 0.0019-9.61 0.00287-33.2 0.0101-66.4 0.0132-99.6 0.0138-3.56 6.48e-5 -7.12 1.33e-4 -10.7 2.03e-4 -0.883 1.7e-5 -1.77 3.4e-5 -2.68 5.15e-5 -19.7 4.1e-4 -39.3 0.00261-59 0.0051-8.12 0.00103-16.2 0.00202-24.4 0.00302-1.35 1.66e-4 -1.35 1.66e-4 -2.72 3.35e-4 -51.3 0.00631-103 0.0105-154 0.00999-1.91-1.58e-5 -3.83-3.15e-5 -5.74-4.72e-5 -8.64-7.34e-5 -17.3-1.62e-4 -25.9-2.54e-4 -3.85-4.11e-5 -7.71-8.13e-5 -11.6-1.21e-4 -1.93-2.04e-5 -3.86-4.14e-5 -5.79-6.31e-5 -61.1-6.81e-4 -122 0.00666-183 0.0205-15.4 0.0035-30.8 0.00697-46.3 0.0103-0.95 2.03e-4 -1.9 4.06e-4 -2.88 6.15e-4 -29.3 0.00621-58.5 0.00998-87.8 0.0112-0.919 4e-5 -1.84 7.99e-5 -2.78 1.21e-4 -20.2 8.53e-4 -40.3 0.00111-60.5 8.3e-4 -7.21-9.65e-5 -14.4-1.49e-4 -21.6-1.79e-4 -1.79-7.91e-6 -3.59-1.81e-5 -5.38-3.06e-5 -28.6-1.76e-4 -57.1 0.00552-85.7 0.0142-28.7 0.00864-57.5 0.0108-86.2 0.00424-3.97-9.12e-4 -7.94-0.00176-11.9-0.00256-0.778-1.6e-4 -1.56-3.2e-4 -2.36-4.85e-4 -12.3-0.00235-24.6 2e-3 -37 0.00916-12.1 0.00689-24.2 0.00665-36.4-0.00119-6.48-0.0039-13-0.00461-19.4 0.00346-5.9 0.00728-11.8 0.00535-17.7-0.00392-2.12-0.00172-4.24-9.26e-5 -6.36 0.0053-24.5 0.0582-24.5 0.0582-34.5-3.26v-2c0.99-0.66 1.98-1.32 3-2-0.99-0.33-1.98-0.66-3-1v-2c7.21-4.13 16.8-3.15 24.9-3.13z" fill="#D00C21"/>
<path transform="translate(803,628)" d="m0 0v2c0.718 0.254 1.44 0.508 2.18 0.77 3.04 1.32 5.36 2.93 8.01 4.92 3.61 2.68 7.23 5.32 10.9 7.88 3.14 2.18 6.19 4.44 9.19 6.81 3.95 3.11 8.03 5.96 12.2 8.79 5.99 4.12 11.8 8.46 17.7 12.8 5.03 3.73 10.1 7.35 15.3 10.8 0.501 0.407 1 0.815 1.52 1.23v2c1.32 0.33 2.64 0.66 4 1v2c0.727 0.263 1.45 0.526 2.2 0.797 2.84 1.22 5.05 2.64 7.55 4.45 3.37 2.41 6.75 4.8 10.2 7.12 0.71 0.482 1.42 0.964 2.15 1.46 2.01 1.32 2.01 1.32 4.91 2.16 0.688 2.06 0.688 2.06 1 4-3.31 1.65-7 1.13-10.6 1.12-1.36 0.00128-1.36 0.00128-2.74 0.00259-3.05 0.00165-6.1-0.00387-9.14-0.00932-2.18-2.82e-4 -4.36-1.24e-4 -6.53 4.43e-4 -5.93 2.88e-4 -11.9-0.00561-17.8-0.0126-6.19-0.00623-12.4-0.00684-18.6-0.00803-11.1-0.00294-22.1-0.0102-33.2-0.0196-14-0.0119-28-0.0181-42-0.0234-27.5-0.0105-54.9-0.0281-82.4-0.0503-0.33-1.32-0.66-2.64-1-4 0.583-0.329 1.17-0.657 1.77-0.996 6-3.48 11.5-7.37 17-11.6 3.37-2.57 6.81-5.03 10.3-7.49 4.97-3.53 9.91-7.09 14.8-10.7 2.44-1.77 4.88-3.53 7.33-5.29 8.04-5.77 16-11.6 23.8-17.7 6.5-5 13.1-9.74 20-14.3 1.34-0.993 2.67-1.99 4-3 0.678-0.508 1.36-1.02 2.05-1.54 1.69-1.27 3.38-2.55 5.07-3.84 3.25-1.84 5.2-1.98 8.88-1.62z" fill="#F9D713"/>
<path transform="translate(803,345)" d="m0 0c4.93-0.0247 9.86-0.0429 14.8-0.0549 1.68-0.00503 3.35-0.0119 5.03-0.0205 2.41-0.0121 4.82-0.0178 7.23-0.0222 0.75-0.00516 1.5-0.0103 2.27-0.0156 3.17-3.41e-4 5.65 0.104 8.68 1.11 1.6 0.0913 3.2 0.125 4.79 0.125 0.995 0.0025 1.99 0.00501 3.02 0.00759 1.1-0.00234 2.2-0.00468 3.33-0.00709 1.75 0.00218 1.75 0.00218 3.54 0.0044 3.26 0.00303 6.52 0.00155 9.78-0.00178 3.54-0.00253 7.08 7.19e-4 10.6 0.00324 6.21 0.00362 12.4 0.0035 18.6 9.53e-4 9.24-0.00377 18.5-0.00185 27.7 0.00121 16.5 0.00527 33 0.00481 49.5 0.00192 14.4-0.00251 28.9-0.00317 43.3-0.00198 0.957 7.64e-5 1.91 1.53e-4 2.9 2.31e-4 3.88 3.11e-4 7.77 6.3e-4 11.6 9.6e-4 36.5 0.00306 72.9 2.82e-4 109-0.0051 32.4-0.00474 64.8-0.00432 97.2 4.61e-4 36.4 0.00535 72.8 0.00748 109 0.00439 3.88-3.21e-4 7.75-6.34e-4 11.6-9.43e-4 0.955-7.91e-5 1.91-1.58e-4 2.89-2.4e-4 14.4-0.00114 28.9 1.94e-4 43.3 0.00272 16.4 0.00286 32.8 0.00215 49.2-0.00328 9.19-0.00294 18.4-0.00312 27.6 6.46e-4 6.13 0.00224 12.3 8.53e-4 18.4-0.0035 3.5-0.00238 6.99-0.00318 10.5 4.06e-4 3.77 0.00303 7.53-6.35e-5 11.3-0.00472 1.63 0.00351 1.63 0.00351 3.29 0.00709 5.59-0.0139 10.9-0.3 16.5-1.13v2c3.04 0.0823 5.07-0.0239 8-1 1.61-0.0703 3.22-0.0843 4.82-0.0625 1.42 0.0116 1.42 0.0116 2.87 0.0234 1.98 0.0258 3.95 0.0518 5.93 0.0781 4.36 0.0354 8.58 0.0151 12.9-0.602 3.48-0.438 3.48-0.438 6.48 0.562 0.33 1.65 0.66 3.3 1 5-7.21 4.05-13.4 4.57-21.6 4.5-1.88 0.00827-1.88 0.00827-3.79 0.0167-3.47 0.0147-6.93 0.00461-10.4-0.00961-3.77-0.0111-7.55 0.00111-11.3 0.0103-6.61 0.0129-13.2 0.0109-19.8-7.8e-4 -9.83-0.0174-19.7-0.0119-29.5-0.00183-17.6 0.0172-35.1 0.0116-52.7-0.00336-15.4-0.0131-30.7-0.0182-46.1-0.0157-1.53 2.41e-4 -1.53 2.41e-4 -3.09 4.86e-4 -4.14 6.64e-4 -8.28 0.00137-12.4 0.00213-38.8 0.00703-77.7-0.00847-117-0.0346-34.5-0.0231-69-0.0285-103-0.0183-8.83 0.0026-17.7 0.00519-26.5 0.0076-1.09 2.97e-4 -2.17 5.95e-4 -3.29 9.01e-4 -28.8 0.00762-57.7 0.0012-86.5-0.0096-3.1-0.00115-6.21-0.00229-9.31-0.00343-2.06-7.55e-4 -4.12-0.00152-6.18-0.0023-15.4-0.00565-30.7-0.00433-46.1 2.28e-4 -17.5 0.00512-34.9-7.81e-4 -52.4-0.0209-9.77-0.011-19.5-0.0138-29.3-0.00471-6.54 0.00524-13.1-5.33e-4 -19.6-0.0151-3.72-0.00796-7.44-0.0114-11.2-0.00143-27 0.0673-27 0.0673-39.2-2.53-4.61-0.949-7.4-0.62-11.7 1.13-3.69 0.23-3.69 0.23-7.56 0.188-1.28-0.00645-2.56-0.0129-3.88-0.0195-2.99-0.141-5.66-0.472-8.56-1.17 0.66-1.65 1.32-3.3 2-5 5.45-0.495 5.45-0.495 11-1v-2z" fill="#CE0A26"/>
<path transform="translate(23,344)" d="m0 0c1.11 0.212 1.11 0.212 2.25 0.429 13.2 2.15 26.5 1.85 39.9 1.82 3.72-0.00693 7.45-0.00212 11.2 0.00115 6.52 0.00413 13 8.9e-4 19.5-0.00728 9.69-0.0121 19.4-0.0127 29.1-0.0109 16.3 0.00262 32.6-0.00404 48.9-0.016 16.1-0.0118 32.3-0.0195 48.4-0.0217 1-1.37e-4 2.01-2.75e-4 3.04-4.17e-4 5.1-6.77e-4 10.2-0.00128 15.3-0.00185 36.1-0.0042 72.2-0.0177 108-0.0366 35.1-0.0184 70.1-0.0325 105-0.041 1.62-3.95e-4 1.62-3.95e-4 3.28-7.97e-4 10.9-0.00264 21.7-0.00519 32.6-0.00768 22.1-0.00507 44.2-0.0107 66.4-0.0167 1.02-2.75e-4 2.03-5.49e-4 3.08-8.32e-4 67.9-0.0184 136-0.0501 204-0.0839-1.48 4.45-1.48 4.45-3 9-68.6 0.0171-137 0.033-206 0.0423-1.02 1.38e-4 -2.03 2.76e-4 -3.08 4.18e-4 -22.1 0.00299-44.2 0.00576-66.2 0.0083-10.8 0.00125-21.7 0.00254-32.5 0.00387-1.62 1.96e-4 -1.62 1.96e-4 -3.27 3.96e-4 -34.9 0.00426-69.9 0.0118-105 0.021-35.9 0.00943-71.8 0.0156-108 0.0176-5.07 2.88e-4 -10.1 6.14e-4 -15.2 9.62e-4 -1.5 1.01e-4 -1.5 1.01e-4 -3.02 2.04e-4 -16.1 0.00118-32.1 0.00582-48.2 0.0118-16.1 0.00589-32.3 0.00814-48.4 0.00667-9.59-7.61e-4 -19.2 0.00127-28.8 0.0073-6.41 0.00375-12.8 0.00386-19.2 0.00103-3.65-0.00151-7.3-0.00145-11 0.00305-3.94 0.00482-7.88 0.00185-11.8-0.00184-1.12 0.00263-2.25 0.00525-3.41 0.00796-23.4-0.0494-23.4-0.0494-27.5-4.13h-2v-5h5v-2z" fill="#CE0A26"/>
<path transform="translate(803,628)" d="m0 0v2c0.718 0.254 1.44 0.508 2.18 0.77 3.04 1.32 5.36 2.93 8.01 4.92 3.61 2.68 7.23 5.32 10.9 7.88 3.14 2.18 6.19 4.44 9.19 6.81 3.95 3.11 8.03 5.96 12.2 8.79 5.99 4.12 11.8 8.46 17.7 12.8 5.03 3.73 10.1 7.35 15.3 10.8 0.501 0.407 1 0.815 1.52 1.23v2c1.32 0.33 2.64 0.66 4 1v2c0.727 0.263 1.45 0.526 2.2 0.797 2.84 1.22 5.05 2.64 7.55 4.45 3.37 2.41 6.75 4.8 10.2 7.12 0.71 0.482 1.42 0.964 2.15 1.46 2.01 1.32 2.01 1.32 4.91 2.16 0.688 2.06 0.688 2.06 1 4-4.78 2.39-11.9 1.56-16.9-0.0625-2.98-1.17-2.98-1.17-5.5-0.438-3.54 0.674-6.29-0.213-9.73-1.12-0.936-0.186-0.936-0.186-1.89-0.375l-1 1c-2.02 0.0724-4.04 0.0838-6.06 0.0625-1.1-0.00902-2.21-0.018-3.35-0.0273-0.855-0.0116-1.71-0.0232-2.59-0.0352-0.433-0.959-0.433-0.959-0.875-1.94-0.953-2.21-0.953-2.21-3.12-3.06v-2h-3v2h-2c-1.26-2.91-2-4.8-2-8-1.94-1.71-1.94-1.71-4-3 1.13-0.124 2.27-0.247 3.44-0.375 1.18-0.206 2.35-0.413 3.56-0.625 0.33-0.66 0.66-1.32 1-2h-4c-3-1-3-1-5-3-0.33 0.99-0.66 1.98-1 3v-3c-4.1-1.02-4.1-1.02-8 0-1.49-0.495-1.49-0.495-3-1-0.33-0.99-0.66-1.98-1-3-1.96-1.06-1.96-1.06-4.31-1.88-4.07-1.69-6.32-3.28-8.69-7.12-0.33-0.99-0.66-1.98-1-3-2.77-1.41-2.77-1.41-6.12-2.56-1.17-0.428-2.34-0.856-3.55-1.3-3.42-1.17-6.82-2.24-10.3-3.14-0.33 1.32-0.66 2.64-1 4-4.16 0.0816-7.95-0.0175-12-1-0.33-0.99-0.66-1.98-1-3h-3v2c-0.804 0.247-1.61 0.495-2.44 0.75-2.72 0.961-2.72 0.961-3.31 3.25-0.0825 0.66-0.165 1.32-0.25 2l-1 2c-1.32-0.33-2.64-0.66-4-1 0.99-0.99 1.98-1.98 3-3-0.33-0.99-0.66-1.98-1-3h-3v2h-6v-2h2v-3l4-1c-3.47 0.495-3.47 0.495-7 1v6c-0.99 0.33-1.98 0.66-3 1v3c-0.99-0.33-1.98-0.66-3-1l1-1c-1.65-0.33-3.3-0.66-5-1 0.99 0.66 1.98 1.32 3 2v2c-0.99 0.33-1.98 0.66-3 1l-2 2c-4.8-0.272-8.06-1.25-12-4-0.124 0.804-0.247 1.61-0.375 2.44-0.309 1.27-0.309 1.27-0.625 2.56l-2 1c0.33 0.66 0.66 1.32 1 2-3 1-3 1-6 1-3.8 1.27-4.09 2.58-6 6-1.38 2.31-1.38 2.31-3 4-2.69 0.25-2.69 0.25-5 0-0.99-1.98-1.98-3.96-3-6 2.54-1.92 5.08-3.84 7.62-5.75 0.713-0.539 1.43-1.08 2.16-1.63 3.99-3.01 8.04-5.87 12.2-8.62 2.2-1.53 4.38-3.07 6.56-4.62 0.605-0.432 1.21-0.863 1.83-1.31 4.71-3.38 9.32-6.89 13.9-10.4 7.06-5.47 14.3-10.7 21.7-15.6 1.34-0.993 2.67-1.99 4-3 0.678-0.508 1.36-1.02 2.05-1.54 1.69-1.27 3.38-2.55 5.07-3.84 3.25-1.84 5.2-1.98 8.88-1.62z" fill="#FAD916"/>
<path transform="translate(0)" d="m0 0h1600l-1 7-2-2h-4l1 1c0.0409 2.33 0.0424 4.67 0 7-4.88-2.62-4.88-2.62-6-6 1.49-0.495 1.49-0.495 3-1v-2c-0.857 0.0116-1.71 0.0232-2.6 0.0352l-3.46 0.0273c-1.69 0.0174-1.69 0.0174-3.41 0.0352-3.53-0.0977-3.53-0.0977-6.58-0.596-4.91-0.623-9.7-0.639-14.6-0.627-1.61-0.0021-1.61-0.0021-3.25-0.00425-3.61-0.00349-7.23 1.65e-4 -10.8 0.00376-2.62-0.00104-5.24-0.00252-7.86-0.0044-5.73-0.0034-11.5-0.00306-17.2-3.16e-4 -8.57 0.00409-17.1 0.00242-25.7-3.83e-4 -14.6-0.0046-29.2-0.00445-43.8-0.00172-14.8 0.00275-29.6 0.00333-44.4 0.00126-0.935-1.29e-4 -1.87-2.58e-4 -2.83-3.91e-4 -3.81-5.33e-4 -7.61-0.00108-11.4-0.00165-35.5-0.00529-71-0.00565-106-0.00285-1.58 1.24e-4 -1.58 1.24e-4 -3.19 2.51e-4 -1.58 1.24e-4 -1.58 1.24e-4 -3.19 2.51e-4 -32.1 0.00252-64.2 0.00318-96.2 0.00198-2.15-7.75e-5 -4.29-1.55e-4 -6.44-2.31e-4 -8.63-3.1e-4 -17.3-6.29e-4 -25.9-9.6e-4 -24.1-9.17e-4 -48.2-0.00149-72.3-0.00179-1.1-1.36e-5 -2.2-2.73e-5 -3.33-4.14e-5 -35-4.09e-4 -70 7.18e-4 -105 0.00289-1.14 7.02e-5 -2.27 1.4e-4 -3.44 2.13e-4 -18.4 0.00114-36.9 0.00236-55.3 0.00359-73.1 0.00485-146 0.00463-219-2.31e-4 -18.4-0.00122-36.8-0.00243-55.3-0.00357-1.7-1.06e-4 -1.7-1.06e-4 -3.44-2.13e-4 -35-0.00216-69.9-0.00307-105-0.00264-1.65 2.04e-5 -1.65 2.04e-5 -3.33 4.12e-5 -24.1 3.12e-4 -48.2 9.46e-4 -72.3 0.00187-8.62 3.29e-4 -17.2 6.42e-4 -25.9 9.51e-4 -2.14 7.74e-5 -4.29 1.56e-4 -6.43 2.36e-4 -32.1 0.00119-64.1 1.77e-4 -96.2-0.00235-1.05-8.28e-5 -2.1-1.66e-4 -3.18-2.51e-4 -1.05-8.27e-5 -2.1-1.65e-4 -3.18-2.51e-4 -35.4-0.00276-70.8-0.00174-106 0.00353-3.8 5.52e-4 -7.6 0.00109-11.4 0.00161-0.933 1.3e-4 -1.87 2.6e-4 -2.83 3.95e-4 -14.8 0.00197-29.5 6e-4 -44.3-0.00216-14.5-0.00265-29-0.00172-43.6 0.00301-8.51 0.00267-17 0.00262-25.5-0.00148-5.66-0.00245-11.3-0.00125-17 0.00287-3.2 0.00223-6.41 0.0024-9.61-8.17e-4 -13.1-0.0123-26.2 0.127-39.3 1.13l3 2-1 2h-2l0.125 2.75c-0.125 3.25-0.539 4.52-2.12 7.25l-0.875 2.62c-1.12 2.38-1.12 2.38-3.12 3.75-2 0.625-2 0.625-4-0.375l1-2c-0.99 0.33-1.98 0.66-3 1-2.19-0.438-2.19-0.438-4-1-0.98 14.1-1.14 28.2-1.13 42.3-0.00136 2.39-0.00314 4.79-0.00531 7.18-0.00453 6.45-0.0028 12.9 3.79e-4 19.4 0.00179 4.04 0.00144 8.08 5.1e-4 12.1-1.53e-4 0.675-3.06e-4 1.35-4.64e-4 2.04-3.2e-4 1.37-6.44e-4 2.74-9.73e-4 4.11-0.00284 12.8 4.09e-4 25.6 0.0058 38.4 0.00446 10.9 0.00369 21.9-9.19e-4 32.8-0.00537 12.8-0.00745 25.5-0.00439 38.3 3.18e-4 1.37 6.33e-4 2.73 9.43e-4 4.1 1.54e-4 0.672 3.09e-4 1.34 4.68e-4 2.04 8.57e-4 4.69-6.29e-4 9.38-0.00295 14.1-0.00291 6.34-8.4e-4 12.7 0.00489 19 0.00131 2.31 9.65e-4 4.62-0.00126 6.93-0.012 13.8 0.295 27.4 1.13 41.2h1c-0.0116 0.666-0.0232 1.33-0.0352 2.02-0.00902 0.922-0.018 1.84-0.0273 2.79l-0.0352 2.71c0.0817 2.91 0.352 5.66 0.691 8.55 0.619 6.47-0.141 12.6-1.03 19-0.291 2.22-0.581 4.44-0.871 6.66-0.132 0.967-0.264 1.93-0.4 2.93-0.332 2.28-0.332 2.28-0.291 4.35h-2v-355z" fill="#CF0C25"/>
<path transform="translate(108 1044)" d="m0 0c2.54-7.42e-4 5.08-0.00192 7.62-0.0035 5.49-0.00241 11-0.00178 16.5 0.00166 8.21 0.00513 16.4 0.00436 24.6 0.00253 14-0.00295 28-0.00121 42 0.00314 14.2 0.00439 28.4 0.00657 42.5 0.0061 1.35-4.3e-5 1.35-4.3e-5 2.72-8.69e-5 4.58-1.56e-4 9.16-3.48e-4 13.7-5.53e-4 33.1-0.0014 66.2 0.00201 99.2 0.00802 32.7 0.00593 65.5 0.00978 98.2 0.0109 1.02 3.44e-5 2.04 6.88e-5 3.09 1.04e-4 9.3 3.13e-4 18.6 6.01e-4 27.9 8.58e-4 23.1 6.39e-4 46.2 0.0016 69.3 0.00278 1.58 8e-5 1.58 8e-5 3.19 1.62e-4 51.2 0.00262 102 0.00893 153 0.0155 17.7 0.00229 35.5 0.00457 53.2 0.00677 1.65 2.05e-4 1.65 2.05e-4 3.33 4.15e-4 51.2 0.00635 102 0.0101 154 0.0131 3.32 1.98e-4 6.65 3.97e-4 9.97 5.97e-4 22 0.00132 44.1 0.00259 66.1 0.00384 43.8 0.00248 87.7 0.00522 132 0.00814 2.09 1.39e-4 4.18 2.78e-4 6.26 4.17e-4 93.9 0.00625 188 0.0156 282 0.0263 1.32 1.5e-4 1.32 1.5e-4 2.66 3.03e-4 44 5e-3 87.9 0.0102 132 0.0156v2h-2c-0.33 0.66-0.66 1.32-1 2v-2h-70v2h-10v-2h-38v2h-3v-2h-54v2h-1164v-2h-31c-0.33 0.66-0.66 1.32-1 2v-2h-27v2h-4v-2h-5v2h-14v-2h-5v2h-6v-2h-5c-0.33 0.66-0.66 1.32-1 2v-2h-5v2h-4v-2h-5v2h-15v-2h-29v-1c18.1-0.758 36.3-1.14 54.4-1.12z" fill="#006E2F"/>
<path transform="translate(1021 721)" d="m0 0c2.27-0.00115 4.53-0.00274 6.8-0.00473 6.19-0.00415 12.4-0.00212 18.6 9.86e-4 6 0.00204 12-6.39e-4 18-0.00315 13-0.00525 26-0.00482 39.1-0.00192 11.4 0.00252 22.8 0.00317 34.2 0.00198 0.756-7.64e-5 1.51-1.53e-4 2.29-2.31e-4 3.07-3.11e-4 6.14-6.3e-4 9.21-9.6e-4 28.8-0.00306 57.5-2.91e-4 86.3 0.0051 25.6 0.00475 51.1 0.00432 76.7-4.61e-4 28.7-0.00535 57.5-0.00748 86.2-0.00439 3.06 3.21e-4 6.12 6.34e-4 9.19 9.43e-4 0.754 7.91e-5 1.51 1.58e-4 2.28 2.4e-4 11.4 0.00114 22.8-1.93e-4 34.2-0.00272 12.9-0.00286 25.9-0.00215 38.8 0.00328 6.6 0.00268 13.2 0.00365 19.8 3.51e-4 6.04-0.00297 12.1-0.00136 18.1 0.00398 2.19 0.00112 4.38 5.4e-4 6.57-0.00188 2.97-0.00302 5.93 6.19e-5 8.9 0.00472 0.857-0.00234 1.71-0.00468 2.6-0.00709 4.33 0.0137 8.38 0.267 12.6 1.13v2c-0.999 0.182-2 0.364-3.03 0.551-1.29 0.251-2.58 0.503-3.91 0.762-1.29 0.244-2.58 0.487-3.9 0.738-1.56 0.47-1.56 0.47-3.16 0.949-0.33 0.99-0.66 1.98-1 3h-6v-2c-0.804 0.0206-1.61 0.0412-2.44 0.0625-2.56-0.0625-2.56-0.0625-3.56-1.06-3.5-0.167-3.5-0.167-7 0-0.33 0.33-0.66 0.66-1 1-1.73-0.0649-3.46-0.203-5.19-0.375-0.942-0.0902-1.88-0.18-2.86-0.273-2.96-0.352-2.96-0.352-5.54-0.868-4.35-0.617-8.59-0.603-13-0.575-0.988 0.00193-1.98 0.00386-2.99 0.00584-2.21 0.00471-4.42 0.0117-6.63 0.0205-5.81 0.0224-11.6 0.0293-17.4 0.0377-2.22 0.00334-4.43 0.00727-6.65 0.0112-19.9 0.0332-39.9-0.0146-59.8-0.0535-5.63-0.0109-11.3-0.021-16.9-0.0313-40.3-0.074-80.7-0.156-121-0.239-5.35-0.011-10.7-0.022-16.1-0.033-0.997-0.00205-0.997-0.00205-2.01-0.00413-21.7-0.0445-43.4-0.0855-65.1-0.125-23.1-0.0415-46.1-0.0867-69.2-0.136-12.5-0.0266-25.1-0.0515-37.6-0.0722-10.6-0.0175-21.3-0.0383-31.9-0.0636-5.42-0.0128-10.8-0.0239-16.3-0.0308-4.95-0.00629-9.9-0.0171-14.9-0.0316-1.8-0.00445-3.59-0.0072-5.39-0.00813-2.43-0.0015-4.86-0.00904-7.29-0.0182-0.707 0.00102-1.41 0.00205-2.14 0.0031-3.01-0.0172-5.3-0.181-8.19-1.14v-2c12.9-1.02 25.7-1.14 38.6-1.13z" fill="#006937"/>
<path transform="translate(109 721)" d="m0 0c2.2-0.00115 4.41-0.00274 6.61-0.00473 6.01-0.00415 12-0.00212 18 9.86e-4 6.5 0.00227 13-0.00123 19.5-0.00398 12-0.00438 24-0.00383 35.9-0.00109 11.1 0.00252 22.1 0.00317 33.2 0.00198 0.736-7.64e-5 1.47-1.53e-4 2.23-2.31e-4 2.99-3.11e-4 5.97-6.3e-4 8.96-9.6e-4 28-0.00306 56-2.92e-4 83.9 0.0051 24.8 0.00475 49.7 0.00432 74.5-4.61e-4 27.9-0.00536 55.9-0.00748 83.8-0.00439 2.98 3.21e-4 5.96 6.34e-4 8.94 9.43e-4 0.734 7.91e-5 1.47 1.58e-4 2.22 2.4e-4 11.1 0.00114 22.1-1.89e-4 33.2-0.00272 12.6-0.00286 25.2-0.00204 37.7 0.00328 6.41 0.00262 12.8 0.00366 19.2 3.51e-4 5.88-0.00299 11.8-0.00132 17.6 0.00398 2.12 0.00111 4.24 5.59e-4 6.36-0.00188 11.3-0.012 22.5 0.168 33.8 1.13v2c-3.85 1.28-7.48 1.15-11.5 1.14-1.32 0.00471-1.32 0.00471-2.67 0.00952-2.98 0.00939-5.96 0.0116-8.94 0.014-2.15 0.00528-4.3 0.011-6.44 0.0171-5.92 0.0156-11.8 0.0249-17.8 0.0332-6.38 0.01-12.8 0.0258-19.1 0.0408-11.8 0.0269-23.6 0.0492-35.4 0.0691-10.9 0.0185-21.8 0.0387-32.7 0.0608-0.724 0.00146-1.45 0.00293-2.19 0.00443-2.94 0.00594-5.88 0.0119-8.82 0.0178-27.6 0.0559-55.2 0.106-82.8 0.153-24.5 0.0421-48.9 0.0895-73.4 0.141-27.5 0.0584-55 0.113-82.5 0.163-2.94 0.0053-5.89 0.0106-8.83 0.0159-0.725 0.0013-1.45 0.00261-2.2 0.00395-10.9 0.0196-21.8 0.0419-32.6 0.0655-12.4 0.0269-24.8 0.0498-37.2 0.0681-6.32 0.00938-12.6 0.0204-19 0.0361-43.8 0.107-43.8 0.107-64.8-0.495-1.08-0.0294-1.08-0.0294-2.18-0.0593-11.3-0.322-11.3-0.322-13.7-1.5v-2c13.1-0.953 26.1-1.14 39.2-1.13z" fill="#006937"/>
<path transform="translate(1597,357)" d="m0 0h3v353c-0.99-0.33-1.98-0.66-3-1-0.176-3.21-0.339-6.42-0.5-9.62-0.0477-0.865-0.0954-1.73-0.145-2.62-0.322-6.58-0.365-13.1-0.338-19.7 0.0151-7.73-0.0549-15.5-0.231-23.2-0.0219-0.966-0.0438-1.93-0.0663-2.93-0.0466-2.05-0.0932-4.1-0.14-6.16-0.822-37.4-0.732-74.7-0.708-112 0.00433-7.6 0.00124-15.2-0.00363-22.8-0.00461-7.5-0.00515-15-0.00256-22.5 0.00152-4.41 0.00189-8.81-0.00154-13.2-0.0138-20.5 0.214-40.9 0.782-61.4 0.339-12.2 0.457-24.5 0.354-36.7-0.0203-2.64-0.0388-5.28-0.051-7.92-0.00742-1.59-0.0193-3.18-0.0366-4.77-0.0085-1.77 0.0341-3.54 0.0876-5.31 0.33-0.33 0.66-0.66 1-1z" fill="#FAD813"/>
<path transform="translate(851,392)" d="m0 0v3c-1.65 0.33-3.3 0.66-5 1 2.48 0.495 2.48 0.495 5 1v4h-2c0.476 4.28 1.01 6.03 4 9 0.828 1.79 0.828 1.79 1.46 3.77 0.364 1.09 0.364 1.09 0.736 2.2 0.364 1.13 0.364 1.13 0.736 2.29 1.42 4.39 2.82 8.53 5.19 12.5 1.64 2.84 2.4 4.63 2.87 7.8 0.841 4.36 2.17 7.01 5 10.4 0.99 0.33 1.98 0.66 3 1 0.688 2.06 0.688 2.06 1 4 1.98-0.495 1.98-0.495 4-1 0.247 0.598 0.495 1.2 0.75 1.81 1.33 2.66 1.33 2.66 5.25 5.19h-10c0.33 0.99 0.66 1.98 1 3-4.95 0.495-4.95 0.495-10 1v-2c-2.48 0.495-2.48 0.495-5 1v-3h-2v-4h-2v5h-4c-0.33 1.65-0.66 3.3-1 5h5v11h4v2c-1.32-0.33-2.64-0.66-4-1-0.33 0.66-0.66 1.32-1 2-2.31-0.66-4.62-1.32-7-2-0.33-2.31-0.66-4.62-1-7h-2c-0.847-5.08-1.09-9.85-1-15 1.98-0.66 3.96-1.32 6-2 0.054-1.46 0.0928-2.92 0.125-4.38 0.0232-0.812 0.0464-1.62 0.0703-2.46 0.0184-2.38 0.0184-2.38-2.2-4.16-0.344-2.06-0.344-2.06-0.5-4.44-0.231-3.5-0.462-4.5-2.5-7.56-0.125-3.19-0.125-3.19 0-6h-4c-0.103-5.13-0.0359-9.95 1-15h-2v-3h-4v4c1.32 0.33 2.64 0.66 4 1h-8c0.66-1.65 1.32-3.3 2-5l-2-1c0.66-2.64 1.32-5.28 2-8 1.65 0.99 3.3 1.98 5 3 0.33-0.99 0.66-1.98 1-3h2c0.371-1.21 0.371-1.21 0.75-2.44 1.25-2.56 1.25-2.56 3.12-3.38 2.03-0.18 4.08-0.188 6.12-0.188z" fill="#FAD813"/>
<path transform="translate(803 355)" d="m0 0c0.73-0.0054 1.46-0.0108 2.21-0.0164 0.828-0.0127 1.66-0.0254 2.51-0.0384 0.896 0.00294 1.79 0.00587 2.71 0.0089 0.92-0.00524 1.84-0.0105 2.79-0.0159 1.95-0.00643 3.9-0.00507 5.85 0.00343 2.98 0.00849 5.96-0.0202 8.94-0.052 1.89-0.00161 3.78-0.00103 5.68 0.00195 1.34-0.0169 1.34-0.0169 2.7-0.034 0.834 0.00938 1.67 0.0188 2.53 0.0284 0.731 1.66e-4 1.46 3.32e-4 2.22 5.04e-4 2.06 0.501 2.06 0.501 6.06 4.5-8.41 0.495-8.41 0.495-17 1 2.13 0.681 2.13 0.681 4.31 1.38 3.02 0.964 5 1.83 7.69 3.63-0.99 0.99-1.98 1.98-3 3 0.99-0.33 1.98-0.66 3-1 2.69 0.438 2.69 0.438 5 1 0.495 1.49 0.495 1.49 1 3 0.66 0.66 1.32 1.32 2 2-0.99 0.33-1.98 0.66-3 1v3c0.99 0.66 1.98 1.32 3 2h-2c-0.495 1.49-0.495 1.49-1 3 1.65 0.33 3.3 0.66 5 1v2c-5.61 0.826-10.4 1.07-16 0v-5h-8c-0.33-0.66-0.66-1.32-1-2-3.03-0.658-3.03-0.658-6-1 0.33 1.65 0.66 3.3 1 5-4.88-0.875-4.88-0.875-6-2l-4 2c-5.4-3.81-7.21-6.87-8.88-13.2-0.211-0.724-0.423-1.45-0.641-2.19-1.48-5.18-1.48-5.18-1.48-7.62-0.66-0.33-1.32-0.66-2-1 2-3 2-3 3.81-3.39z" fill="#FAD813"/>
<path transform="translate(63,133)" d="m0 0h1c1.89 9.97 2.3 19.7 2.27 29.8 0.00135 1.59 0.0033 3.17 0.0058 4.76 0.00293 3.3-0.00126 6.61-0.0107 9.91-0.0114 4.2-0.00482 8.4 0.00714 12.6 0.00729 3.27 0.0049 6.54-2.56e-4 9.81-0.00132 1.55 2.44e-4 3.09 0.00496 4.64 0.0222 9.33-0.525 18.3-2.27 27.5-2.31-4.4-2.56-8.06-3-13-0.66 4.29-1.32 8.58-2 13-1.79-3.57-2.26-4.8-2.41-8.53-0.0378-0.894-0.0756-1.79-0.115-2.71-0.0301-0.965-0.0602-1.93-0.0913-2.93-0.0373-1.01-0.0747-2.03-0.113-3.07-0.36-10.6-0.46-21.3-0.459-31.9-0.00221-3.23-0.0205-6.46-0.0393-9.69-0.0309-11.9 0.451-23.4 2.22-35.1h1c0.66 4.29 1.32 8.58 2 13 0.66-5.94 1.32-11.9 2-18z" fill="#D00C21"/>
<path transform="translate(992,466)" d="m0 0h1v5c0.953-0.0116 1.91-0.0232 2.89-0.0352 1.25-0.00902 2.51-0.018 3.8-0.0273 1.24-0.0116 2.48-0.0232 3.76-0.0352 7.09 0.195 7.09 0.195 10.3 2.21 1.9 2.98 1.56 5.66 1.52 9.14-0.00387 1.28-0.00773 2.57-0.0117 3.89-0.379 4.87-1.23 9.11-3.8 13.3-2.01 3.43-2.65 6.69-3.5 10.6h-2v3h-3v2c-3.85 2.57-5.59 1.83-10 1-1-3-1-3 0-6 0.99-0.66 1.98-1.32 3-2 5.27-7.6 4.8-16.1 5-25h-2v-2h2v-3h-2v2c-4.88-1.75-4.88-1.75-6-4 1.32-0.33 2.64-0.66 4-1-0.825-0.371-1.65-0.743-2.5-1.12-0.825-0.619-1.65-1.24-2.5-1.88-0.312-3.19-0.312-3.19 0-6z" fill="#FAD813"/>
<path transform="translate(694,551)" d="m0 0c4.71 1.56 8.22 4.17 12.1 7.12 1.33 0.991 2.66 1.98 3.99 2.97 0.654 0.49 1.31 0.98 1.98 1.48 3.58 2.66 7.21 5.26 10.8 7.86 2.07 1.56 2.07 1.56 4.07 3.56-0.162 10-4.89 20.6-8 30-0.443 1.36-0.886 2.71-1.33 4.07-1.2 3.65-2.43 7.29-3.67 10.9-0.221 0.655-0.442 1.31-0.669 1.98-0.665 1.97-1.34 3.93-2.02 5.89-0.396 1.15-0.791 2.3-1.2 3.49-1.11 2.63-1.11 2.63-3.11 3.63-1.07-1.96-2.07-3.97-3-6l1-2c0.343-1.33 0.676-2.66 1-4 0.33-0.99 0.66-1.98 1-3-0.66-0.66-1.32-1.32-2-2 0.33-0.99 0.66-1.98 1-3h3v-2c-0.66-0.33-1.32-0.66-2-1 0.619-0.289 1.24-0.577 1.88-0.875 2.26-1.06 2.26-1.06 4.12-3.12-0.882-2.88-0.882-2.88-2-5 0.198-2.34 0.481-4.67 0.812-7 0.171-1.26 0.343-2.52 0.52-3.81 0.668-3.19 0.668-3.19 2.67-5.19-0.427-3.84-2.45-7.5-4-11 2.05-2.25 3.01-3 6-4-0.99-0.66-1.98-1.32-3-2v-2c-0.763-0.268-1.53-0.536-2.31-0.812-2.58-1.14-3.96-2-5.69-4.19v-2c-0.701-0.247-1.4-0.495-2.12-0.75-3.28-1.43-6.01-3.1-8.88-5.25-0.33-0.99-0.66-1.98-1-3z" fill="#F9D713"/>
<path transform="translate(735,446)" d="m0 0h2c0.495 1.49 0.495 1.49 1 3 0.99 0.66 1.98 1.32 3 2-0.206 0.598-0.413 1.2-0.625 1.81-0.682 2.47-0.682 2.47 1.62 5.19 1.32-0.33 2.64-0.66 4-1-1.23 2.46-2.78 3.42-5 5l2 1v-2c0.99 0.33 1.98 0.66 3 1v2h3v3c-5.8 0.363-9.64-0.743-15-3v3c1.98 0.33 3.96 0.66 6 1v1c-3.3 0.33-6.6 0.66-10 1-0.33-0.99-0.66-1.98-1-3-1.98 0.99-1.98 0.99-4 2-0.33-0.66-0.66-1.32-1-2-0.866 0.33-1.73 0.66-2.62 1-3.97 1.18-7.57 1.9-11.4 0v-3c-0.99 0.33-1.98 0.66-3 1-0.33-0.66-0.66-1.32-1-2-1.98 0.99-1.98 0.99-4 2v-4c6.93-0.99 6.93-0.99 14-2v-3h-5c3-2 3-2 5-2v-3c2.97-1.32 5.94-2.64 9-4v2c0.763-0.351 1.53-0.701 2.31-1.06 2.69-0.938 2.69-0.938 5.69 0.0625 0.66-0.99 1.32-1.98 2-3z" fill="#FAD813"/>
<path transform="translate(805,631)" d="m0 0c5.46 2.48 9.91 5.31 14.6 9.07 3.53 2.8 7.19 5.41 10.9 8.04 1.71 1.26 3.4 2.56 5.05 3.89 2.64 2.1 5.36 3.99 8.15 5.88 6.63 4.53 13.1 9.3 19.5 14.1 5.03 3.73 10.1 7.35 15.3 10.8 0.501 0.407 1 0.815 1.52 1.23v2c0.66 0.33 1.32 0.66 2 1-1.32 0.33-2.64 0.66-4 1 0.516 0.784 1.03 1.57 1.56 2.38 0.474 0.866 0.949 1.73 1.44 2.62-0.495 0.99-0.495 0.99-1 2h-6c-3-6.62-3-6.62-3-10 0.99-0.33 1.98-0.66 3-1v-2c-0.866-0.186-0.866-0.186-1.75-0.375-2.27-0.631-4.18-1.51-6.25-2.62 0.33 0.99 0.66 1.98 1 3-1.32 0.99-2.64 1.98-4 3-1.38-1.29-2.71-2.63-4-4v-2h-4c-1.58-2.64-2.03-4.31-2.31-7.44-0.851-4.41-2.25-5.75-5.69-8.56-1.64-1.05-3.31-2.04-5-3-2.27-1.48-4.53-3-6.78-4.51-1.36-0.91-2.73-1.81-4.1-2.7-4.02-2.58-4.02-2.58-5.12-4.79-2.01-0.728-2.01-0.728-4.38-1.19-0.791-0.179-1.58-0.358-2.4-0.543-2.4-0.451-2.4-0.451-5.23 0.73-0.934-3.01-1.04-3.87 0-7-0.65-0.482-1.3-0.964-1.97-1.46-0.835-0.632-1.67-1.26-2.53-1.91-0.835-0.626-1.67-1.25-2.53-1.9-0.65-0.57-1.3-1.14-1.97-1.73v-2z" fill="#F9D713"/>
<path transform="translate(1528 25.8)" d="m0 0c1.22 0.0348 1.22 0.0348 2.46 0.0703 1.23 0.0271 1.23 0.0271 2.48 0.0547 0.94 0.0348 0.94 0.0348 1.9 0.0703v2c0.99 0.33 1.98 0.66 3 1-0.33 0.99-0.66 1.98-1 3 1.05-0.227 2.1-0.454 3.19-0.688 4.2-0.344 5.53 0.2 8.81 2.69 0.33-0.99 0.66-1.98 1-3 1.32 0.33 2.64 0.66 4 1v8c0.99 0.33 1.98 0.66 3 1-4.75 1.12-4.75 1.12-7 0v-4h-2v2c-4.17 2.01-7.58 2.24-12.2 2.19-1.85-0.00967-1.85-0.00967-3.73-0.0195-3.08-0.168-3.08-0.168-5.08-1.17v-2c-1.09 0.0825-2.19 0.165-3.31 0.25-3.69-0.25-3.69-0.25-5.62-2.25-0.351-0.66-0.701-1.32-1.06-2 1-1 1-1 4.56-1.06 1.13 0.0206 2.27 0.0412 3.44 0.0625-0.309-1.18-0.309-1.18-0.625-2.38-0.124-0.866-0.247-1.73-0.375-2.62 2-2 2-2 4.16-2.2z" fill="#D11122"/>
<path transform="translate(597,458)" d="m0 0c1.09 0.33 2.19 0.66 3.31 1 5.15 1.29 10.4 1.58 15.7 1 0.99-0.66 1.98-1.32 3-2h4v6h2c0.312 3.31 0.312 3.31 0 7-2.5 1.94-2.5 1.94-5 3l4 2c-3.75 3-3.75 3-6 3l-3-3c-0.99-0.33-1.98-0.66-3-1-0.33-0.99-0.66-1.98-1-3-1.87-1.02-1.87-1.02-4.06-1.69-0.733-0.251-1.47-0.503-2.22-0.762-0.566-0.182-1.13-0.364-1.71-0.551v-3c-1.45 0.0309-1.45 0.0309-2.94 0.0625-3.06-0.0625-3.06-0.0625-4.06-1.06 0.287-2.34 0.619-4.67 1-7z" fill="#FAD813"/>
<path transform="translate(895,565)" d="m0 0c4.95 0.33 9.9 0.66 15 1-0.33 0.99-0.66 1.98-1 3-1.98 0.33-3.96 0.66-6 1 2.48 0.495 2.48 0.495 5 1-6.19 3.2-12 5.97-19 4-0.33 1.65-0.66 3.3-1 5-0.66-1.32-1.32-2.64-2-4v12c-1.98 0.99-3.96 1.98-6 3-0.268-0.577-0.536-1.15-0.812-1.75-1.11-2.31-1.11-2.31-2.88-4.19-1.31-2.06-1.31-2.06-1-4.81 0.227-0.742 0.454-1.49 0.688-2.25h2c-1.12-3.73-1.12-3.73-4-6 1.65-0.99 3.3-1.98 5-3v2c0.619-0.206 1.24-0.413 1.88-0.625 0.701-0.124 1.4-0.247 2.12-0.375l2 2c0.413-0.454 0.825-0.908 1.25-1.38 2.83-2.63 4.87-3.62 8.75-3.62v-2z" fill="#FAD813"/>
<path transform="translate(15,772)" d="m0 0c2 3 2 3 2 7h2c0.173 28.9 0.336 57.7 0.484 86.6 0.0175 3.41 0.0351 6.81 0.0528 10.2 0.00352 0.678 0.00703 1.36 0.0107 2.05 0.0572 11 0.121 22 0.188 33 0.0685 11.3 0.129 22.5 0.183 33.8 0.0305 6.33 0.0646 12.7 0.107 19 0.0399 5.95 0.0704 11.9 0.0935 17.9 0.0102 2.19 0.0239 4.38 0.0412 6.57 0.0231 2.98 0.0339 5.96 0.0415 8.94 0.00972 0.875 0.0194 1.75 0.0294 2.65-0.00375 5.99-0.00375 5.99-2.23 9.33-0.00331-1.07-0.00662-2.14-0.01-3.24-0.0813-26.1-0.174-52.3-0.277-78.4-0.0499-12.6-0.0964-25.3-0.134-37.9-0.0331-11-0.0731-22-0.121-33.1-0.0251-5.83-0.0469-11.7-0.0606-17.5 0.0286-33.5 0.0286-33.5-2.4-66.9z" fill="#006E2F"/>
<path transform="translate(42,308)" d="m0 0c1.86 0.0898 3.71 0.246 5.56 0.438 1.52 0.153 1.52 0.153 3.07 0.309 1.17 0.126 1.17 0.126 2.37 0.254v2h2v-2h3c0.33 2.64 0.66 5.28 1 8-3 1.5-5.79 1.09-9.12 1.06-1.28-0.00902-2.56-0.018-3.88-0.0273-0.987-0.0116-1.97-0.0232-2.99-0.0352v2c2.64 0.33 5.28 0.66 8 1v1h-6v3h-6c-0.33-0.66-0.66-1.32-1-2h-1v-9h4c-0.0206-0.804-0.0412-1.61-0.0625-2.44 0.0625-2.56 0.0625-2.56 1.06-3.56z" fill="#D21222"/>
<path transform="translate(791,369)" d="m0 0c-1.76 6.11-3.7 12.1-6 18-2.64-0.33-5.28-0.66-8-1 0.33-1.98 0.66-3.96 1-6-3.13-1.04-3.99-0.934-7 0 0.33-1.32 0.66-2.64 1-4 1.32-0.33 2.64-0.66 4-1h-9c-0.33-0.66-0.66-1.32-1-2 3.62-1.21 6.93-1.11 10.7-1.06 0.702 0.00451 1.4 0.00902 2.13 0.0137 1.73 0.0118 3.46 0.0297 5.19 0.0488v-2c3.62-2.12 3.62-2.12 7-1z" fill="#FAD813"/>
<path transform="translate(889,596)" d="m0 0c3.24 1.62 3.68 4.75 5 8 0.352 0.65 0.704 1.3 1.07 1.97 1.01 2.2 1.23 3.82 1.37 6.22 0.3 3.44 0.992 6.32 2.19 9.56 1.25 3.45 1.64 5.67 0.375 9.25-3.3-3.69-4.81-6.81-6.12-11.6-1.15-4.35-1.15-4.35-2.98-8.42-1.3-2.95-1.08-5.57-1.02-8.77 0.0271-1.76 0.0271-1.76 0.0547-3.55 0.0232-0.892 0.0464-1.78 0.0703-2.7z" fill="#FAD813"/>
<path transform="translate(756,451)" d="m0 0c0.66 1.32 1.32 2.64 2 4-0.33 0.66-0.66 1.32-1 2h3c-0.33-1.98-0.66-3.96-1-6h5c0.124 0.639 0.247 1.28 0.375 1.94 0.206 0.681 0.413 1.36 0.625 2.06l2 1c-0.66 1.98-1.32 3.96-2 6h-3c-0.33 1.65-0.66 3.3-1 5-0.784-0.0206-1.57-0.0412-2.38-0.0625-2.61-0.124-2.61-0.124-4.62 1.06-0.99-0.66-1.98-1.32-3-2 0.33-0.66 0.66-1.32 1-2l2 1c0.66-4.62 1.32-9.24 2-14z" fill="#F9D813"/>
<path transform="translate(1523 14.9)" d="m0 0c0.698-0.00387 1.4-0.00773 2.12-0.0117 5.2 0.0101 5.2 0.0101 6.32 1.14 0.0718 1.52 0.0839 3.04 0.0625 4.56-0.00902 0.826-0.018 1.65-0.0273 2.5-0.0116 0.638-0.0232 1.28-0.0352 1.93-0.33-1.32-0.66-2.64-1-4h-17v-5c3.05-1.52 6.22-1.14 9.56-1.12z" fill="#D21222"/>
<path transform="translate(708,457)" d="m0 0c-3.15 2.76-5.28 4.49-9.5 4.81-0.732 0.0683-1.46 0.137-2.22 0.207-2.28-0.0195-2.28-0.0195-4.45-0.473-4.19-0.809-8.39-0.916-12.6-1.11-0.884-0.0432-1.77-0.0864-2.68-0.131-2.17-0.106-4.34-0.207-6.51-0.307v-1c4.43-1.04 8.85-1.33 13.4-1.56 0.784-0.0425 1.57-0.0849 2.38-0.129 7.42-0.372 14.8-0.407 22.2-0.309z" fill="#FAD813"/>
<path transform="translate(40.2 28.9)" d="m0 0c1.86 0.0619 1.86 0.0619 3.75 0.125 0.125 6.75 0.125 6.75-1 9-6.62 0.125-6.62 0.125-10-1 0.33 1.32 0.66 2.64 1 4-0.66-0.33-1.32-0.66-2-1v-9c3.61-1.81 4.54-2.25 8.25-2.12z" fill="#D21222"/>
<path transform="translate(70,14)" d="m0 0c0.99 0.66 1.98 1.32 3 2 0.188 2.63 0.188 2.63 0 5-3.19 1.59-6.54 1.52-10 1-2-1.81-2-1.81-3-4v-3c3.53-1.18 6.29-1.2 10-1z" fill="#D21222"/>
<path transform="translate(982,521)" d="m0 0c0.33 1.98 0.66 3.96 1 6h-4v7c-0.99 0.33-1.98 0.66-3 1-0.33-0.66-0.66-1.32-1-2-2.02-1.13-2.02-1.13-4-2v-3h2c0.268-0.598 0.536-1.2 0.812-1.81 2.3-4.23 3.19-5.19 8.19-5.19z" fill="#FAD813"/>
<path transform="translate(901,639)" d="m0 0c0.66 0.33 1.32 0.66 2 1v2h2c2.51 6.46 5.29 15.2 3 22-1.58-3.53-2.95-6.83-4-10.6-0.882-3.48-0.882-3.48-2.69-6.56-1.47-3.23-1.39-4.56-0.312-7.88z" fill="#FAD813"/>
<path transform="translate(695,704)" d="m0 0c0.103 0.639 0.206 1.28 0.312 1.94 0.227 0.681 0.454 1.36 0.688 2.06 0.99 0.33 1.98 0.66 3 1 0.33-0.66 0.66-1.32 1-2 0.571 0.158 1.14 0.317 1.73 0.48 2.24 0.513 4.3 0.721 6.6 0.836 1.2 0.0628 1.2 0.0628 2.42 0.127 1.24 0.059 1.24 0.059 2.5 0.119 0.84 0.0432 1.68 0.0864 2.55 0.131 2.07 0.106 4.14 0.207 6.2 0.307v1h-33c-0.33-1.32-0.66-2.64-1-4 2.65-1.46 3.89-2 7-2z" fill="#F3CE1A"/>
<path transform="translate(667,531)" d="m0 0c9.82 3.49 18 11.5 26 18-1.74 0.719-1.74 0.719-4 1-2.01-1.41-2.01-1.41-4.12-3.5-4-3.78-8.14-6.9-12.7-9.96-1.95-1.39-3.58-2.76-5.16-4.54v-1z" fill="#FAD813"/>
<path transform="translate(801,357)" d="m0 0c1.94 1.19 1.94 1.19 4 3 0.165 0.846 0.33 1.69 0.5 2.56 0.165 0.804 0.33 1.61 0.5 2.44 1.97 1.36 1.97 1.36 4 2-0.628 2.93-1.59 5.36-3 8-0.33-1.32-0.66-2.64-1-4h-2c-0.193-0.855-0.387-1.71-0.586-2.59-0.26-1.1-0.521-2.21-0.789-3.35-0.255-1.1-0.51-2.2-0.773-3.34-0.281-0.898-0.562-1.8-0.852-2.72-0.66-0.33-1.32-0.66-2-1l2-1z" fill="#FAD817"/>
<path transform="translate(725,722)" d="m0 0h14v3c-3.9 2.6-7.47 2.15-12 2v-2h-2v-3z" fill="#006937"/>
<path transform="translate(594,485)" d="m0 0h14v3h4v3c-2.5 2.19-2.5 2.19-5 4-1-3-1-3-2-7-3.63-0.33-7.26-0.66-11-1v-2z" fill="#FAD813"/>
<path transform="translate(57.8 722)" d="m0 0c3.16 0.0748 6.11 0.418 9.19 1.19v2h-5v3h-7v-3c-0.99-0.33-1.98-0.66-3-1 2-2 2-2 5.81-2.19z" fill="#006937"/>
<path transform="translate(9,358)" d="m0 0v9c-1.65 0.33-3.3 0.66-5 1-1.6-3.51-2.22-6.14-2-10 3-1 3-1 7 0z" fill="#FAD813"/>
<path transform="translate(903,702)" d="m0 0c0.763 0.309 1.53 0.619 2.31 0.938 1.88 0.741 3.77 1.42 5.69 2.06 0.688 2.06 0.688 2.06 1 4-2.64 1.32-4.68 1.1-7.62 1.06-1-0.00902-2.01-0.018-3.04-0.0273-0.771-0.0116-1.54-0.0232-2.34-0.0352 2-2 2-2 4-3-0.66-0.66-1.32-1.32-2-2h3c-0.33-0.99-0.66-1.98-1-3z" fill="#F7D416"/>
<path transform="translate(819,387)" d="m0 0c5.78 3.44 5.78 3.44 6.81 6.06 0.0619 0.639 0.124 1.28 0.188 1.94 0.33 0.99 0.66 1.98 1 3l2 1h-8c0.33-0.99 0.66-1.98 1-3-0.987-1.67-1.99-3.34-3-5v-4z" fill="#FAD813"/>
<path transform="translate(642 672)" d="m0 0c1.21 0.0135 1.21 0.0135 2.45 0.0273 0.922 0.0174 0.922 0.0174 1.86 0.0352l-2 1v3c-1.58 0.223-3.17 0.428-4.75 0.625-1.32 0.174-1.32 0.174-2.67 0.352-2.81 0.0255-4.21-0.528-6.58-1.98h4v-2c2.88-0.961 4.7-1.11 7.69-1.06z" fill="#FBDA17"/>
<path transform="translate(795,316)" d="m0 0c7.55-0.301 14.6 0.574 22 2v1c-2.46 0.221-4.92 0.428-7.38 0.625-1.05 0.0967-1.05 0.0967-2.12 0.195-1.83 0.141-3.67 0.167-5.51 0.18-0.66-0.66-1.32-1.32-2-2-2.57-0.648-2.57-0.648-5-1v-1z" fill="#D00D23"/>
<path transform="translate(39,317)" d="m0 0c0.99 0.33 1.98 0.66 3 1v2c2.97 0.33 5.94 0.66 9 1v1h-6v3h-6v-8z" fill="#D11021"/>
<path transform="translate(61,270)" d="m0 0h1c1.29 7.43 1.29 7.43 0 11h-2v2c-1.94-0.562-1.94-0.562-4-2-0.75-3.62-0.75-3.62-1-7h2v5h2c0.66-2.97 1.32-5.94 2-9z" fill="#D00C21"/>
<path transform="translate(36,723)" d="m0 0c1.65 0.33 3.3 0.66 5 1v6c-1.98 0.33-3.96 0.66-6 1 0.33-2.64 0.66-5.28 1-8z" fill="#006937"/>
<path transform="translate(18.6 358)" d="m0 0c1.21 0.0309 1.21 0.0309 2.44 0.0625 2.12 4.62 2.12 4.62 1 8h-7c0.66-0.99 1.32-1.98 2-3 0.33-0.66 0.66-1.32 1-2-0.99-0.66-1.98-1.32-3-2 1-1 1-1 3.56-1.06z" fill="#FAD813"/>
<path transform="translate(67,311)" d="m0 0c6.05 0.391 6.05 0.391 8 1 0.66 1.32 1.32 2.64 2 4h-9c-0.33-1.65-0.66-3.3-1-5z" fill="#D21222"/>
<path transform="translate(975 500)" d="m0 0c0.866 0.34 0.866 0.34 1.75 0.688-0.99 1.49-0.99 1.49-2 3h-2v2c-1.32 0.33-2.64 0.66-4 1 0-4 0-4 1.75-5.81 2.25-1.19 2.25-1.19 4.5-0.875z" fill="#FAD813"/>
<path transform="translate(590,480)" d="m0 0h11c-0.33 0.99-0.66 1.98-1 3-1.64-0.0928-1.64-0.0928-3.31-0.188-3.61-0.168-3.61-0.168-5.62 1.69-0.351 0.495-0.701 0.99-1.06 1.5v-6z" fill="#FAD813"/>
<path transform="translate(0,1050)" d="m0 0h1c0.133 0.615 0.266 1.23 0.402 1.86 0.177 0.808 0.353 1.62 0.535 2.45 0.261 1.2 0.261 1.2 0.527 2.43 0.534 2.41 0.534 2.41 1.54 5.26-0.33 0.66-0.66 1.32-1 2h-3v-14z" fill="#006935"/>
<path transform="translate(835,430)" d="m0 0h2c0.133 0.626 0.266 1.25 0.402 1.9 0.177 0.817 0.353 1.63 0.535 2.48 0.174 0.812 0.348 1.62 0.527 2.46 0.458 2.19 0.458 2.19 1.54 4.16-0.99 0.33-1.98 0.66-3 1v-3h-2v-9z" fill="#FAD813"/>
</svg>
